<?xml version="1.0" encoding="UTF-8"?>
<svg version="1.1" xmlns="http://www.w3.org/2000/svg" width="800" height="215">
<path d="M0 0 C264 0 528 0 800 0 C800 70.95 800 141.9 800 215 C536 215 272 215 0 215 C0 144.05 0 73.1 0 0 Z " fill="#FEFEFE" transform="translate(0,0)"/>
<path d="M0 0 C2.31 0 4.62 0 7 0 C7.495 20.295 7.495 20.295 8 41 C11.30330993 33.73271816 14.55621461 26.46511704 17.6875 19.125 C18.07744141 18.21492188 18.46738281 17.30484375 18.86914062 16.3671875 C20.62492391 12.26135583 22.35263801 8.15078274 24 4 C29.75 4.875 29.75 4.875 32 6 C31.3514529 10.07227246 30.04300417 13.48584087 28.375 17.25 C27.83733594 18.47603445 27.30093791 19.70262466 26.765625 20.9296875 C26.48138672 21.5803418 26.19714844 22.23099609 25.90429688 22.90136719 C24.26463805 26.70657972 22.69669185 30.54132987 21.125 34.375 C20.659729 35.50856934 20.659729 35.50856934 20.18505859 36.66503906 C19.45583782 38.44300366 18.72778545 40.22144739 18 42 C21.69220071 39.14865509 25.01270097 36.10418382 28.30078125 32.796875 C29.02263863 32.0728952 29.02263863 32.0728952 29.75907898 31.33428955 C31.2792727 29.80854672 32.79593138 28.27934531 34.3125 26.75 C35.34937669 25.70810172 36.38648389 24.66643278 37.42382812 23.625 C39.95188826 21.08597846 42.47679261 18.54384518 45 16 C47.8369841 17.36573821 50.00722456 18.50903069 52 21 C52 24 52 24 50.58398438 25.49243164 C49.92720703 26.02215576 49.27042969 26.55187988 48.59375 27.09765625 C43.61023966 31.27365334 39.07063429 35.81847951 34.5 40.4375 C33.67757812 41.26443359 32.85515625 42.09136719 32.0078125 42.94335938 C30.00287887 44.95994959 28.00033747 46.97885236 26 49 C26.54889893 48.75330566 27.09779785 48.50661133 27.66333008 48.25244141 C32.97250377 45.87786473 38.30878206 43.58717517 43.6875 41.375 C44.40744141 41.0759375 45.12738281 40.776875 45.86914062 40.46875 C56.71475733 36 56.71475733 36 62 36 C62.99 38.97 63.98 41.94 65 45 C63.865625 45.45890625 62.73125 45.9178125 61.5625 46.390625 C60.04159926 47.01025123 58.52076972 47.63005228 57 48.25 C56.25621094 48.55035156 55.51242188 48.85070312 54.74609375 49.16015625 C50.32256644 50.96803263 46.04773351 52.92124813 41.82421875 55.15917969 C40 56 40 56 36 57 C51.84 57.495 51.84 57.495 68 58 C68 61.96 68 65.92 68 70 C51.83 70 35.66 70 19 70 C18.67 66.37 18.34 62.74 18 59 C15.78535757 54.57071514 14.16814054 53.46685869 10 51 C4.99282782 49.33094261 0.02499794 49.58355763 -5 51 C-9.69977488 42.02342997 -14.18543302 33.04299941 -16 23 C-16.66 23 -17.32 23 -18 23 C-18.84124316 20.75267898 -19.67314832 18.50261215 -20.5 16.25 C-20.73847656 15.61578125 -20.97695312 14.9815625 -21.22265625 14.328125 C-22.44801758 10.96713393 -23 8.63128413 -23 5 C-21.35 4.67 -19.7 4.34 -18 4 C-7.77075106 27.09321245 -7.77075106 27.09321245 -3.71435547 38.38867188 C-2.77097217 41.43366483 -2.77097217 41.43366483 -1 44 C-0.67 29.48 -0.34 14.96 0 0 Z " fill="#35254C" transform="translate(126,63)"/>
<path d="M0 0 C4.44196018 1.5953519 8.374493 3.97874417 12 7 C12.3403125 6.1028125 12.3403125 6.1028125 12.6875 5.1875 C14.50121296 2.16464507 15.70094614 1.34655259 19 0 C25.6313395 -0.75845305 31.23895542 -0.45662675 37 3 C41.97614017 7.86555927 43.7730552 12.54482635 44.22705078 19.45678711 C44.21657715 20.6350708 44.20610352 21.81335449 44.1953125 23.02734375 C44.18886719 24.31318359 44.18242188 25.59902344 44.17578125 26.92382812 C44.15907601 28.26172154 44.14214619 29.59961217 44.125 30.9375 C44.11495322 32.30272783 44.10583036 33.6679628 44.09765625 35.03320312 C44.07417605 38.35565199 44.04133359 41.67773321 44 45 C40.04 45 36.08 45 32 45 C31.9906543 44.14245117 31.98130859 43.28490234 31.97167969 42.40136719 C31.92758709 39.21027321 31.86593944 36.02013244 31.79248047 32.82958984 C31.76430901 31.45048349 31.74307528 30.07121682 31.72900391 28.69189453 C31.70752455 26.70577051 31.65876868 24.72000091 31.609375 22.734375 C31.58842773 21.54038086 31.56748047 20.34638672 31.54589844 19.11621094 C30.90231756 15.44238879 29.91596644 14.24974247 27 12 C25.01961974 11.41356422 25.01961974 11.41356422 23 11.5625 C22.34 11.56378906 21.68 11.56507812 21 11.56640625 C18.25100149 12.16238054 17.00523369 13.00704952 15 15 C14.35402587 18.18823344 14.35402587 18.18823344 14.390625 21.85546875 C14.37408875 22.51710526 14.35755249 23.17874176 14.34051514 23.86042786 C14.29200712 25.96954601 14.27066073 28.07794323 14.25 30.1875 C14.22184223 31.61917695 14.19191505 33.05082028 14.16015625 34.48242188 C14.08625107 37.98812393 14.03669212 41.49368875 14 45 C10.04 45 6.08 45 2 45 C1.9906543 44.10692139 1.98130859 43.21384277 1.97167969 42.29370117 C1.92764696 38.97764838 1.86603139 35.66289061 1.79248047 32.34741211 C1.76426818 30.91296317 1.74305476 29.47835871 1.72900391 28.04370117 C1.70757551 25.98014698 1.66093533 23.91846294 1.609375 21.85546875 C1.58842773 20.61434326 1.56748047 19.37321777 1.54589844 18.09448242 C1.29293252 14.92690505 1.29293252 14.92690505 -0.91088867 13.09643555 C-4.47607617 11.22530582 -7.00456644 11.61948252 -11 12 C-12.84727334 13.02020938 -12.84727334 13.02020938 -14 15 C-14.508149 18.19477975 -14.508149 18.19477975 -14.51171875 21.85546875 C-14.52966995 22.51710526 -14.54762115 23.17874176 -14.56611633 23.86042786 C-14.62020898 25.96938747 -14.65410931 28.07812099 -14.6875 30.1875 C-14.72067427 31.61917208 -14.75516405 33.05081433 -14.79101562 34.48242188 C-14.87593257 37.9880639 -14.94274921 41.49378473 -15 45 C-18.96 45 -22.92 45 -27 45 C-27 30.48 -27 15.96 -27 1 C-23.04 1 -19.08 1 -15 1 C-14.67 1.66 -14.34 2.32 -14 3 C-13.360625 2.505 -12.72125 2.01 -12.0625 1.5 C-7.91054453 -0.53361084 -4.54639946 -0.69711458 0 0 Z " fill="#2F1E47" transform="translate(691,88)"/>
<path d="M0 0 C0 0.66 0 1.32 0 2 C0.66 2 1.32 2 2 2 C2 0.68 2 -0.64 2 -2 C5.96 -2 9.92 -2 14 -2 C14 12.52 14 27.04 14 42 C10.04 42 6.08 42 2 42 C1.505 40.02 1.505 40.02 1 38 C-0.60875 38.9590625 -0.60875 38.9590625 -2.25 39.9375 C-7.23998631 42.76183225 -11.18491112 43.58150889 -17 43 C-23.75405562 40.32189284 -27.72449145 35.33567224 -31 29 C-33.10193096 22.49161137 -32.5099044 15.27476101 -30 9 C-26.70581965 2.89540005 -23.0277234 -0.16440829 -16.453125 -2.37890625 C-9.99436 -4.01416681 -5.76983805 -2.82604313 0 0 Z " fill="#35244C" transform="translate(640,91)"/>
<path d="M0 0 C1.828125 1.265625 1.828125 1.265625 2.72265625 3.19921875 C2.828125 5.265625 2.828125 5.265625 0.765625 8.578125 C-2.171875 11.265625 -2.171875 11.265625 -5.359375 11.203125 C-8.171875 10.265625 -8.171875 10.265625 -10.171875 9.265625 C-12.0240313 9.16977521 -13.87974653 9.13578894 -15.734375 9.140625 C-16.72566406 9.13804688 -17.71695312 9.13546875 -18.73828125 9.1328125 C-21.11999848 8.99124069 -21.11999848 8.99124069 -22.171875 10.265625 C-22.58934108 13.13927291 -22.58934108 13.13927291 -22.171875 16.265625 C-19.33724255 19.76368207 -16.45370435 21.22568315 -12.296875 22.828125 C-8.13611578 24.47615188 -4.12772406 26.17781577 -0.171875 28.265625 C-0.171875 28.925625 -0.171875 29.585625 -0.171875 30.265625 C0.488125 30.265625 1.148125 30.265625 1.828125 30.265625 C4.93942929 34.83535317 6.60583242 38.33196427 6.34765625 43.92578125 C4.92348536 50.33990426 0.21561651 55.72122269 -5.171875 59.265625 C-11.01627102 62.98233768 -20.12474091 62.05893765 -26.72265625 60.765625 C-31.35024642 59.18415729 -34.64426505 56.52866421 -38.171875 53.265625 C-36.61686519 49.44878274 -34.13592005 47.07366768 -31.171875 44.265625 C-28.91566337 45.35194912 -26.79833956 46.49908465 -24.671875 47.828125 C-19.8861129 50.57993821 -15.61259794 50.61663938 -10.171875 50.265625 C-7.71375875 46.57845062 -7.86069336 44.62216796 -8.171875 40.265625 C-10.65079334 36.54724748 -13.21222721 35.93408485 -17.234375 34.515625 C-23.66004359 32.10580699 -29.35261257 29.31728841 -34.171875 24.265625 C-35.92452921 19.00766238 -35.95254567 13.73031966 -35.171875 8.265625 C-32.67709409 3.47594177 -28.49699422 -0.54815424 -23.30859375 -2.33203125 C-15.11057766 -3.87571618 -7.68849249 -3.12500017 0 0 Z " fill="#312048" transform="translate(480.171875,71.734375)"/>
<path d="M0 0 C4.13762476 3.59275236 5.94976555 6.87441387 8 12 C8 15.63 8 19.26 8 23 C-2.23 23 -12.46 23 -23 23 C-22.01 24.65 -21.02 26.3 -20 28 C-20 28.66 -20 29.32 -20 30 C-14.75808333 31.74730556 -9.72395182 31.84507442 -4.8125 29.4375 C-3.884375 28.963125 -2.95625 28.48875 -2 28 C0.6875 28.0625 0.6875 28.0625 3 29 C4.8125 31.0625 4.8125 31.0625 6 33 C4.47271176 37.27640707 1.92066417 38.87776549 -2 41 C-5.14143049 41.5893315 -8.1860127 41.60512011 -11.375 41.5625 C-12.18710937 41.58634766 -12.99921875 41.61019531 -13.8359375 41.63476562 C-20.03925014 41.61985382 -24.2577578 40.02644521 -29 36 C-31.05859375 33.46484375 -31.05859375 33.46484375 -32.4375 30.9375 C-32.91058594 30.10089844 -33.38367188 29.26429687 -33.87109375 28.40234375 C-36.3933525 23.03490732 -36.93620141 17.47050459 -35.38671875 11.7265625 C-32.62499063 4.59716744 -27.87368244 -0.1438605 -21 -3.4375 C-13.12834377 -4.91343554 -6.98616766 -3.99543368 0 0 Z " fill="#301F47" transform="translate(594,92)"/>
<path d="M0 0 C3.3 0 6.6 0 10 0 C10.12413166 6.8134913 10.21459229 13.626316 10.2746582 20.44067383 C10.29971296 22.75589473 10.33376636 25.07103723 10.37719727 27.38598633 C10.43824557 30.72496954 10.46630125 34.06290183 10.48828125 37.40234375 C10.51408768 38.42770737 10.5398941 39.45307098 10.56648254 40.50950623 C10.56913511 47.39517654 9.29799278 52.50115303 5 58 C-0.68256748 62.768654 -8.24743807 64.49492443 -15.53125 64.3203125 C-22.38514645 63.43104112 -28.99690215 60.83057723 -34 56 C-32.47291037 52.56404834 -30.40072955 49.88087546 -28 47 C-25.78974503 48.06419684 -23.81464989 49.13239294 -21.8125 50.5625 C-18.24068855 52.38809252 -15.6752563 52.29930625 -11.6875 52.1875 C-10.43324219 52.16042969 -9.17898438 52.13335937 -7.88671875 52.10546875 C-6.45779297 52.05326172 -6.45779297 52.05326172 -5 52 C-4.690625 51.360625 -4.38125 50.72125 -4.0625 50.0625 C-3 48 -3 48 -2 47 C-1.76924918 45.65252916 -1.58846937 44.29622435 -1.4375 42.9375 C-1.293125 41.638125 -1.14875 40.33875 -1 39 C-2.98 39.495 -2.98 39.495 -5 40 C-5 40.66 -5 41.32 -5 42 C-12.43988535 44.05238217 -17.97869036 45.20378211 -25.03125 41.40625 C-28.47354843 38.94746541 -31.06424507 35.75419138 -33 32 C-33 30.68 -33 29.36 -33 28 C-32.34 27.67 -31.68 27.34 -31 27 C-31.185625 26.154375 -31.37125 25.30875 -31.5625 24.4375 C-32.03529632 20.7226718 -31.66064631 17.67025727 -31 14 C-30.54625 14.66 -30.0925 15.32 -29.625 16 C-29.08875 16.66 -28.5525 17.32 -28 18 C-27.34 18 -26.68 18 -26 18 C-25.67 17.01 -25.34 16.02 -25 15 C-24.34 15 -23.68 15 -23 15 C-22.89042969 15.90363281 -22.78085937 16.80726562 -22.66796875 17.73828125 C-22.50941406 18.91777344 -22.35085938 20.09726563 -22.1875 21.3125 C-22.03667969 22.48425781 -21.88585937 23.65601563 -21.73046875 24.86328125 C-20.99216579 28.03364102 -20.60519714 29.15176087 -18 31 C-12.97560615 32.67479795 -8.09914442 32.23615622 -3 31 C-3 30.34 -3 29.68 -3 29 C-2.34 29 -1.68 29 -1 29 C-1.14139481 26.74971671 -1.28828003 24.49977794 -1.4375 22.25 C-1.51871094 20.99703125 -1.59992188 19.7440625 -1.68359375 18.453125 C-1.92515522 15.81682447 -2.24283934 13.51962706 -3 11 C-2.34 10.67 -1.68 10.34 -1 10 C-0.53248212 7.64400765 -0.53248212 7.64400765 -0.375 4.9375 C-0.189375 2.4934375 -0.189375 2.4934375 0 0 Z " fill="#2E1D46" transform="translate(333,89)"/>
<path d="M0 0 C3.63 0 7.26 0 11 0 C11 7.59 11 15.18 11 23 C11.66 23 12.32 23 13 23 C13.28875 22.360625 13.5775 21.72125 13.875 21.0625 C15 19 15 19 17 18 C24.14162531 17.26660077 30.11191129 17.66422558 36 22 C40.69177354 26.26089638 42.79935887 31.0456133 43.22705078 37.34326172 C43.21657715 38.52678223 43.20610352 39.71030273 43.1953125 40.9296875 C43.18886719 42.21875 43.18242187 43.5078125 43.17578125 44.8359375 C43.15907463 46.18229442 43.14214479 47.52864859 43.125 48.875 C43.11495664 50.24478517 43.10583317 51.61457742 43.09765625 52.984375 C43.07414412 56.32309756 43.0412793 59.66145761 43 63 C39.04 63 35.08 63 31 63 C30.505 47.655 30.505 47.655 30 32 C25.45450977 30.09724975 25.45450977 30.09724975 21 29.75 C20.360625 29.74484375 19.72125 29.7396875 19.0625 29.734375 C16.43162439 29.98592387 16.43162439 29.98592387 12 32 C11.67 41.9 11.34 51.8 11 62 C7.37 62 3.74 62 0 62 C0 41.54 0 21.08 0 0 Z " fill="#2D1B44" transform="translate(354,70)"/>
<path d="M0 0 C3.96 0 7.92 0 12 0 C12 17.16 12 34.32 12 52 C20.91 52 29.82 52 39 52 C39 55.63 39 59.26 39 63 C26.13 63 13.26 63 0 63 C0 42.21 0 21.42 0 0 Z " fill="#2F1E45" transform="translate(233,70)"/>
<path d="M0 0 C3.96 0 7.92 0 12 0 C12 3.96 12 7.92 12 12 C17.28 12 22.56 12 28 12 C28 15.3 28 18.6 28 22 C22.72 22 17.44 22 12 22 C12.11350996 25.45906666 12.24026306 28.91675193 12.375 32.375 C12.4059375 33.35984375 12.436875 34.3446875 12.46875 35.359375 C12.50742187 36.30039063 12.54609375 37.24140625 12.5859375 38.2109375 C12.63306885 39.51490479 12.63306885 39.51490479 12.68115234 40.84521484 C12.81229433 43.20961794 12.81229433 43.20961794 15 45 C17.89883083 45.24339551 17.89883083 45.24339551 21.125 45.125 C22.76855469 45.09792969 22.76855469 45.09792969 24.4453125 45.0703125 C25.28835938 45.04710937 26.13140625 45.02390625 27 45 C27.02687279 46.81242052 27.04633715 48.62495233 27.0625 50.4375 C27.07410156 51.44683594 27.08570313 52.45617187 27.09765625 53.49609375 C27 56 27 56 26 57 C17.19082267 57.65533222 11.4418397 57.15864156 4.1875 52 C2 50 2 50 1 47 C0.91733514 45.08093083 0.89259337 43.15910526 0.90234375 41.23828125 C0.90556641 40.12001953 0.90878906 39.00175781 0.91210938 37.84960938 C0.92048828 36.68236328 0.92886719 35.51511719 0.9375 34.3125 C0.94201172 33.13365234 0.94652344 31.95480469 0.95117188 30.74023438 C0.96296715 27.82680133 0.98090273 24.91339433 1 22 C-2.96 22 -6.92 22 -11 22 C-11 18.7 -11 15.4 -11 12 C-7.37 12 -3.74 12 0 12 C0 8.04 0 4.08 0 0 Z " fill="#2C1B45" transform="translate(496,77)"/>
<path d="M0 0 C3.96 0 7.92 0 12 0 C12 3.96 12 7.92 12 12 C16.95 12 21.9 12 27 12 C27 15.3 27 18.6 27 22 C22.05 22 17.1 22 12 22 C12.33 29.59 12.66 37.18 13 45 C17.62 45 22.24 45 27 45 C27 48.63 27 52.26 27 56 C24.27022936 56.08126109 21.5428983 56.14061663 18.8125 56.1875 C17.65911133 56.22520508 17.65911133 56.22520508 16.48242188 56.26367188 C11.84739617 56.32335032 8.73229895 56.08905704 5 53 C5 52.34 5 51.68 5 51 C4.34 51 3.68 51 3 51 C0.0615511 44.45983027 -0.37895557 39.11821985 -0.1875 32 C-0.16719727 30.55173828 -0.16719727 30.55173828 -0.14648438 29.07421875 C-0.11145985 26.71590042 -0.05766538 24.35787336 0 22 C-3.63 22 -7.26 22 -11 22 C-11 18.7 -11 15.4 -11 12 C-7.37 12 -3.74 12 0 12 C0 8.04 0 4.08 0 0 Z " fill="#312148" transform="translate(411,77)"/>
<path d="M0 0 C0.495 0.495 0.495 0.495 1 1 C1.66 0.01 2.32 -0.98 3 -2 C4.16063604 2.25566547 3.76173392 5.6835078 3 10 C2.01 9.67 1.02 9.34 0 9 C0.49113281 9.76570313 0.49113281 9.76570313 0.9921875 10.546875 C2.35648384 13.86772037 2.1912273 16.67372568 2.125 20.25 C2.10695313 21.51328125 2.08890625 22.7765625 2.0703125 24.078125 C2.04710937 25.04234375 2.02390625 26.0065625 2 27 C1.34 27 0.68 27 0 27 C0 27.66 0 28.32 0 29 C-4.14327024 31.0088583 -7.41538356 31.40215934 -12 31 C-15.46177622 29.75898588 -17.40252225 28.99579626 -19.3125 25.8125 C-20.19313933 22.20988454 -20.62467807 18.69066561 -21 15 C-22.29633621 16.06645115 -22.29633621 16.06645115 -22.0625 18.5625 C-22.041875 19.366875 -22.02125 20.17125 -22 21 C-22.66 19.68 -23.32 18.36 -24 17 C-24.66 17.33 -25.32 17.66 -26 18 C-26.33 17.34 -26.66 16.68 -27 16 C-27.84454356 19.37817425 -28.10844919 21.67465243 -27 25 C-27.99 25.33 -28.98 25.66 -30 26 C-30.33 26.99 -30.66 27.98 -31 29 C-32.8930055 22.5360788 -33.24594825 14.84199229 -30.4375 8.625 C-27.44008322 3.54104221 -23.33273229 0.06916897 -18 -2.375 C-11.08114172 -3.81642881 -6.34109949 -2.73323254 0 0 Z " fill="#311F49" transform="translate(330,91)"/>
<path d="M0 0 C5.92664321 1.77599746 9.56275655 4.94523022 13 10 C14.80350179 14.44549439 15.23761508 18.1494956 15.1953125 22.9296875 C15.18886719 24.21875 15.18242187 25.5078125 15.17578125 26.8359375 C15.15907463 28.18229442 15.14214479 29.52864859 15.125 30.875 C15.11495664 32.24478517 15.10583317 33.61457742 15.09765625 34.984375 C15.07414412 38.32309756 15.0412793 41.66145761 15 45 C11.04 45 7.08 45 3 45 C2.505 29.655 2.505 29.655 2 14 C-3.48255366 11.80697854 -7.79732108 10.71892843 -13.5 13 C-13.995 13.33 -14.49 13.66 -15 14 C-15 13.34 -15 12.68 -15 12 C-15.99 12.33 -16.98 12.66 -18 13 C-18.66 12.67 -19.32 12.34 -20 12 C-18.86500606 8.70851757 -18.00716624 8.0040131 -14.875 6.25 C-13.92625 5.8375 -12.9775 5.425 -12 5 C-12.99 4.67 -13.98 4.34 -15 4 C-11.3761488 -1.52205897 -5.91589107 -0.80298798 0 0 Z " fill="#33234A" transform="translate(382,88)"/>
<path d="M0 0 C3.63 0 7.26 0 11 0 C11 1.65 11 3.3 11 5 C11.66 5 12.32 5 13 5 C13.28875 4.360625 13.5775 3.72125 13.875 3.0625 C15 1 15 1 17 0 C20.00474497 -0.13559318 22.99068847 -0.04299016 26 0 C26 3.63 26 7.26 26 11 C23.20052083 11.45572917 20.40104167 11.91145833 17.6015625 12.3671875 C14.8574885 12.7958802 14.8574885 12.7958802 13 15 C12.62703444 18.00972657 12.62703444 18.00972657 12.5859375 21.5390625 C12.54726563 22.84101562 12.50859375 24.14296875 12.46875 25.484375 C12.43729237 26.86457862 12.40604509 28.24478704 12.375 29.625 C12.33682066 31.01304541 12.29776895 32.40106711 12.2578125 33.7890625 C12.16327057 37.19257185 12.07772103 40.59607165 12 44 C8.04 44 4.08 44 0 44 C0 29.48 0 14.96 0 0 Z " fill="#34234B" transform="translate(531,89)"/>
<path d="M0 0 C0.99 0.66 1.98 1.32 3 2 C3 2.99 3 3.98 3 5 C3.99 5.33 4.98 5.66 6 6 C5.01 6.66 4.02 7.32 3 8 C18.84 8.495 18.84 8.495 35 9 C35 12.63 35 16.26 35 20 C19.16 20 3.32 20 -13 20 C-13 17.03 -13 14.06 -13 11 C-11.68 10.67 -10.36 10.34 -9 10 C-8.67 9.01 -8.34 8.02 -8 7 C-4.535 6.505 -4.535 6.505 -1 6 C-0.67 4.02 -0.34 2.04 0 0 Z " fill="#2C1A43" transform="translate(159,112)"/>
<path d="M0 0 C1.32 0 2.64 0 4 0 C4 3.96 4 7.92 4 12 C5.65 11.01 7.3 10.02 9 9 C11.31640625 8.75 11.31640625 8.75 13.5625 9 C14.30628906 9.061875 15.05007813 9.12375 15.81640625 9.1875 C19.05339702 10.39196168 20.19967806 12.09147988 22 15 C22.99258268 20.46947286 23.34758428 27.01876253 20.125 31.8125 C13.9595144 36.12833992 7.11115418 34.01587917 0 33 C0 22.11 0 11.22 0 0 Z " fill="#625873" transform="translate(558,153)"/>
<path d="M0 0 C3.96 0 7.92 0 12 0 C12 14.52 12 29.04 12 44 C8.04 44 4.08 44 0 44 C0 29.48 0 14.96 0 0 Z " fill="#322249" transform="translate(278,89)"/>
<path d="M0 0 C0.56976562 0.32355469 1.13953125 0.64710937 1.7265625 0.98046875 C-0.9134375 1.31046875 -3.5534375 1.64046875 -6.2734375 1.98046875 C-6.2734375 2.64046875 -6.2734375 3.30046875 -6.2734375 3.98046875 C-5.2834375 3.65046875 -4.2934375 3.32046875 -3.2734375 2.98046875 C-1.0859375 3.91796875 -1.0859375 3.91796875 0.7265625 4.98046875 C1.0565625 4.65046875 1.3865625 4.32046875 1.7265625 3.98046875 C3.72614614 3.93966092 5.72701504 3.93792519 7.7265625 3.98046875 C7.0871875 4.26921875 6.4478125 4.55796875 5.7890625 4.85546875 C3.57450171 5.80870326 3.57450171 5.80870326 2.7265625 7.98046875 C0.8359375 8.54296875 0.8359375 8.54296875 -1.5234375 8.98046875 C-4.98111584 9.63023381 -8.03320381 10.60164591 -11.2734375 11.98046875 C-11.40621094 13.11226562 -11.53898438 14.2440625 -11.67578125 15.41015625 C-11.8539717 16.89195054 -12.03236779 18.37372011 -12.2109375 19.85546875 C-12.29794922 20.60183594 -12.38496094 21.34820312 -12.47460938 22.1171875 C-13.16015625 27.75390625 -13.16015625 27.75390625 -14.2734375 29.98046875 C-15.2634375 29.98046875 -16.2534375 29.98046875 -17.2734375 29.98046875 C-17.7684375 31.46546875 -17.7684375 31.46546875 -18.2734375 32.98046875 C-18.2734375 32.32046875 -18.2734375 31.66046875 -18.2734375 30.98046875 C-18.9334375 30.98046875 -19.5934375 30.98046875 -20.2734375 30.98046875 C-19.6134375 32.63046875 -18.9534375 34.28046875 -18.2734375 35.98046875 C-22.06178145 34.71768743 -22.49355028 33.45933923 -24.2734375 29.98046875 C-26.27129972 23.3752916 -25.8214449 16.35048724 -23.2734375 9.98046875 C-18.19933089 1.4868555 -10.07036087 -4.51608967 0 0 Z " fill="#32224A" transform="translate(633.2734375,90.01953125)"/>
<path d="M0 0 C2.125 1.1875 2.125 1.1875 4.125 4.1875 C4.72172136 8.90963154 4.74946123 13.4674732 4.125 18.1875 C1.45055229 21.34197679 -0.08984303 21.96551157 -4.13671875 22.46875 C-8.27653656 22.63297418 -11.29186928 22.41361526 -14.875 20.1875 C-18.08222488 15.37666268 -18.32611114 11.78127818 -17.875 6.1875 C-17.00827966 3.27216794 -16.10400289 2.37609062 -13.75 0.4375 C-9.06196987 -1.60077397 -4.87274164 -1.37707916 0 0 Z " fill="#FAF9FB" transform="translate(637.875,99.8125)"/>
<path d="M0 0 C0.7528125 0.05542969 1.505625 0.11085938 2.28125 0.16796875 C5.39178371 1.07155689 6.60358867 2.18571404 8.5 4.8125 C8.890625 8.265625 8.890625 8.265625 8.75 12.0625 C8.71390625 13.32578125 8.6778125 14.5890625 8.640625 15.890625 C8.57101562 17.33695313 8.57101562 17.33695313 8.5 18.8125 C7.84 18.8125 7.18 18.8125 6.5 18.8125 C6.5 19.4725 6.5 20.1325 6.5 20.8125 C2.35672976 22.8213583 -0.91538356 23.21465934 -5.5 22.8125 C-8.97078649 21.56825579 -10.89806737 20.7701201 -12.875 17.625 C-13.85255649 13.22599582 -14.72670083 9.08018599 -12.51953125 5 C-8.83613765 0.28525619 -5.72437352 -0.5195065 0 0 Z " fill="#F9F8FA" transform="translate(323.5,99.1875)"/>
<path d="M0 0 C0.495 0.33 0.99 0.66 1.5 1 C0.84 2.65 0.18 4.3 -0.5 6 C1.975 6.495 1.975 6.495 4.5 7 C5.29953138 10.28696233 5.59658936 11.71023192 4.5 15 C4.5 15.99 4.5 16.98 4.5 18 C-2.43 18 -9.36 18 -16.5 18 C-17.16 16.02 -17.82 14.04 -18.5 12 C-18.17 11.34 -17.84 10.68 -17.5 10 C-18.16 10 -18.82 10 -19.5 10 C-19.5 8.68 -19.5 7.36 -19.5 6 C-20.16 5.67 -20.82 5.34 -21.5 5 C-15.41705726 -0.36730242 -7.91567712 -3.16627085 0 0 Z " fill="#291841" transform="translate(586.5,89)"/>
<path d="M0 0 C2.21025497 1.06419684 4.18535011 2.13239294 6.1875 3.5625 C9.75931145 5.38809252 12.3247437 5.29930625 16.3125 5.1875 C17.56675781 5.16042969 18.82101562 5.13335937 20.11328125 5.10546875 C21.06589844 5.07066406 22.01851563 5.03585938 23 5 C23.33 4.01 23.66 3.02 24 2 C24.68707555 4.49064888 25 6.37886292 25 9 C27.475 9.99 27.475 9.99 30 11 C29.67 11.99 29.34 12.98 29 14 C20.85317949 17.92793132 12.67173575 18.10234156 4.25 15.25 C0.2775641 13.68999712 -2.8933199 11.9995532 -6 9 C-4.47291037 5.56404834 -2.40072955 2.88087546 0 0 Z " fill="#301F48" transform="translate(305,136)"/>
<path d="M0 0 C2.31 0 4.62 0 7 0 C7.04950439 5.88988016 7.0857692 11.7796387 7.10986328 17.66967773 C7.11990963 19.67262889 7.13354909 21.67556542 7.15087891 23.6784668 C7.17518713 26.56042088 7.18649687 29.44218072 7.1953125 32.32421875 C7.20563507 33.21711105 7.21595764 34.11000336 7.22659302 35.029953 C7.22739134 39.4717257 7.10378748 42.96349427 5 47 C4.67 46.34 4.34 45.68 4 45 C2.515 45.495 2.515 45.495 1 46 C0 45 0 45 -0.12025452 43.17137146 C-0.11803391 42.37417191 -0.11581329 41.57697235 -0.11352539 40.75561523 C-0.11344986 39.85475693 -0.11337433 38.95389862 -0.11329651 38.02574158 C-0.10813522 37.04658279 -0.10297394 36.06742401 -0.09765625 35.05859375 C-0.0962413 34.06118668 -0.09482635 33.0637796 -0.09336853 32.03614807 C-0.08775114 28.83656876 -0.07519571 25.63705831 -0.0625 22.4375 C-0.05748724 20.27408955 -0.05292395 18.11067801 -0.04882812 15.94726562 C-0.03777607 10.63148675 -0.02102104 5.31574829 0 0 Z " fill="#2C1C43" transform="translate(126,63)"/>
<path d="M0 0 C8.25 0 16.5 0 25 0 C25 1.32 25 2.64 25 4 C21.7 4 18.4 4 15 4 C15 13.9 15 23.8 15 34 C13.35 33.67 11.7 33.34 10 33 C10 23.76 10 14.52 10 5 C6.7 5 3.4 5 0 5 C0 3.35 0 1.7 0 0 Z " fill="#625772" transform="translate(621,153)"/>
<path d="M0 0 C4.10337558 0.52581684 5.9744409 2.62763291 8.80859375 5.515625 C10.17661133 6.89814453 10.17661133 6.89814453 11.57226562 8.30859375 C12.52753885 9.28887242 13.48261541 10.26934276 14.4375 11.25 C15.38797203 12.21553318 16.33913735 13.1803844 17.29101562 14.14453125 C19.05349674 15.93313241 20.81287639 17.72479892 22.56811523 19.52050781 C25.7734667 22.78860836 28.98681602 26.04158272 32.3125 29.1875 C34 31 34 31 34 33 C34.66 33 35.32 33 36 33 C36 33.66 36 34.32 36 35 C33.97021484 35.92260742 33.97021484 35.92260742 31 36 C28.15108407 34.10965965 25.85987489 31.67537082 23.4765625 29.23828125 C22.77099213 28.53607956 22.06542175 27.83387787 21.33847046 27.11039734 C19.85033797 25.62196577 18.36967592 24.12603338 16.89599609 22.62329102 C14.6318699 20.31949028 12.33987519 18.04645871 10.04296875 15.77539062 C8.60240631 14.32726988 7.16354426 12.87745521 5.7265625 11.42578125 C5.03712555 10.7433284 4.3476886 10.06087555 3.63735962 9.35774231 C3.01275848 8.71415268 2.38815735 8.07056305 1.74462891 7.4074707 C1.18901276 6.84486038 0.63339661 6.28225006 0.0609436 5.70259094 C-1 4 -1 4 -0.67153931 1.78703308 C-0.44993134 1.19731216 -0.22832336 0.60759125 0 0 Z " fill="#37284B" transform="translate(84,81)"/>
<path d="M0 0 C3.1137596 1.49921758 6.03799023 3.22279414 9 5 C10.32608822 5.68096422 11.65686601 6.35330586 13 7 C12.01 7 11.02 7 10 7 C10.33 7.99 10.66 8.98 11 10 C10.34 10 9.68 10 9 10 C8.67 10.99 8.34 11.98 8 13 C10.41645782 13.16687448 10.41645782 13.16687448 13 13 C13.66 12.34 14.32 11.68 15 11 C18.63 11.99 22.26 12.98 26 14 C20.08428358 18.43678731 14.08788634 17.54522203 7 17 C1.2284713 15.85983583 -2.7644446 12.91788874 -7 9 C-5.44499019 5.18315774 -2.96404505 2.80804268 0 0 Z " fill="#32214A" transform="translate(449,116)"/>
<path d="M0 0 C1.32 0 2.64 0 4 0 C5.0063655 2.43504509 6.00526413 4.87270864 7 7.3125 C7.28617188 8.00279297 7.57234375 8.69308594 7.8671875 9.40429688 C9.08910744 12.41545674 10 14.71886984 10 18 C10.66 18 11.32 18 12 18 C12.17015625 17.3709375 12.3403125 16.741875 12.515625 16.09375 C14.14570353 10.33645135 16.16919403 5.27115594 19 0 C20.32 0.33 21.64 0.66 23 1 C20.18176903 7.85726246 17.30588653 14.69015972 14.375 21.5 C14.08616943 22.18191406 13.79733887 22.86382812 13.49975586 23.56640625 C10.56958005 30.32925538 10.56958005 30.32925538 8 33 C4.8125 33.25 4.8125 33.25 2 33 C2 32.01 2 31.02 2 30 C2.928125 29.87625 2.928125 29.87625 3.875 29.75 C6.10540926 29.17787812 6.10540926 29.17787812 7.3125 27.3125 C8.90009573 21.97240528 6.50448557 17.90532872 4.0546875 13.30078125 C2.11030677 9.05915068 1.09715555 4.52161077 0 0 Z " fill="#382B4B" transform="translate(584,163)"/>
<path d="M0 0 C1.69140625 1.2109375 1.69140625 1.2109375 3 3 C3.3984375 5.59375 3.3984375 5.59375 3.375 8.5 C3.38273438 9.4590625 3.39046875 10.418125 3.3984375 11.40625 C3 14 3 14 1.7265625 15.82421875 C-0.35643939 17.24273361 -1.49851245 17.37408966 -4 17.3125 C-5.0209375 17.30669922 -5.0209375 17.30669922 -6.0625 17.30078125 C-8 17 -8 17 -11 15 C-11.43359375 12.06640625 -11.43359375 12.06640625 -11.4375 8.5625 C-11.46650391 6.83193359 -11.46650391 6.83193359 -11.49609375 5.06640625 C-11 2 -11 2 -9.1953125 0.08203125 C-5.85753896 -1.56309912 -3.53026652 -0.8986133 0 0 Z " fill="#F8F6F9" transform="translate(573,166)"/>
<path d="M0 0 C7.1713005 0.50032329 13.38385129 3.34610664 20 6 C22.24897064 6.85687325 24.49894893 7.71110715 26.75 8.5625 C41.84119988 14.38365207 41.84119988 14.38365207 46 18 C45.505 19.485 45.505 19.485 45 21 C35.68628836 19.42198624 26.86284319 14.98975361 18.20703125 11.328125 C15.79606459 10.32967352 13.38216562 9.36380803 10.94921875 8.421875 C10.26263184 8.15431396 9.57604492 7.88675293 8.86865234 7.61108398 C7.51832577 7.08663395 6.16582921 6.56773061 4.81103516 6.05493164 C0.11120273 4.22240546 0.11120273 4.22240546 -1 2 C-0.67 1.34 -0.34 0.68 0 0 Z " fill="#403355" transform="translate(70,102)"/>
<path d="M0 0 C1.28583984 0.00580078 1.28583984 0.00580078 2.59765625 0.01171875 C4.9375 0.3125 4.9375 0.3125 7.9375 2.3125 C7.9375 3.3025 7.9375 4.2925 7.9375 5.3125 C7.16664063 5.2403125 6.39578125 5.168125 5.6015625 5.09375 C4.59867188 5.0009375 3.59578125 4.908125 2.5625 4.8125 C1.06589844 4.67328125 1.06589844 4.67328125 -0.4609375 4.53125 C-2.95953736 4.28457053 -2.95953736 4.28457053 -5.0625 4.3125 C-4.93911883 6.29475126 -4.93911883 6.29475126 -4.0625 8.3125 C-1.87418717 9.27454788 -1.87418717 9.27454788 0.75 9.75 C4.24994339 10.68264967 5.8203294 11.21167879 8.625 13.625 C9.9375 16.3125 9.9375 16.3125 10.0625 19.4375 C8.9375 22.3125 8.9375 22.3125 6.375 24.1875 C2.11919671 25.58030835 -0.59658014 25.74468579 -5.0625 25.3125 C-7.5625 24 -7.5625 24 -9.0625 22.3125 C-9.0625 21.3225 -9.0625 20.3325 -9.0625 19.3125 C-6.89375748 19.81853992 -5.06282373 20.31233813 -3.0625 21.3125 C-1.06289988 21.352492 0.93797242 21.35596799 2.9375 21.3125 C3.2675 19.6625 3.5975 18.0125 3.9375 16.3125 C3.33421875 16.14234375 2.7309375 15.9721875 2.109375 15.796875 C-6.52106354 13.17990331 -6.52106354 13.17990331 -9.0625 9.3125 C-9.5625 6.25 -9.5625 6.25 -9.0625 3.3125 C-6.13182955 0.46861478 -4.02912336 -0.07900242 0 0 Z " fill="#3B2D4C" transform="translate(709.0625,161.6875)"/>
<path d="M0 0 C3.57713022 0.89083859 6.95201356 1.88985554 10 4 C10.89453125 5.93359375 10.89453125 5.93359375 11 8 C8.9375 11.3125 8.9375 11.3125 6 14 C3.3125 14 3.3125 14 0 13 C-1.78898893 12.6325465 -3.58089749 12.27911331 -5.375 11.9375 C-6.91685785 11.62594465 -8.45859034 11.31376521 -10 11 C-9.67 9.35 -9.34 7.7 -9 6 C-11.475 5.01 -11.475 5.01 -14 4 C-12.68 3.34 -11.36 2.68 -10 2 C-11.98 2 -13.96 2 -16 2 C-11.08812517 -1.27458322 -5.74000682 -0.53304707 0 0 Z " fill="#37284E" transform="translate(472,69)"/>
<path d="M0 0 C16.17 0 32.34 0 49 0 C49 1.32 49 2.64 49 4 C32.83 4 16.66 4 0 4 C0 2.68 0 1.36 0 0 Z " fill="#463A56" transform="translate(65,129)"/>
<path d="M0 0 C1.32 0 2.64 0 4 0 C4.06058594 1.26457031 4.12117187 2.52914062 4.18359375 3.83203125 C4.26800904 5.49219871 4.35265655 7.15235437 4.4375 8.8125 C4.47681641 9.64587891 4.51613281 10.47925781 4.55664062 11.33789062 C4.59853516 12.14033203 4.64042969 12.94277344 4.68359375 13.76953125 C4.72025146 14.50792236 4.75690918 15.24631348 4.79467773 16.00708008 C4.94842141 18.207495 4.94842141 18.207495 6 21 C10.27786748 20.50639991 13.09567131 19.95216435 17 18 C17 12.06 17 6.12 17 0 C17.99 0 18.98 0 20 0 C20 7.59 20 15.18 20 23 C19.01 23 18.02 23 17 23 C16.67 22.34 16.34 21.68 16 21 C15.34 21 14.68 21 14 21 C14 21.66 14 22.32 14 23 C10.94306678 24.52846661 8.37015453 24.23242445 5 24 C1.8149643 22.23984869 1.16703028 21.50109084 0 18 C-0.08021999 16.59175107 -0.10765977 15.18002769 -0.09765625 13.76953125 C-0.09282227 12.56586914 -0.09282227 12.56586914 -0.08789062 11.33789062 C-0.07951172 10.50451172 -0.07113281 9.67113281 -0.0625 8.8125 C-0.05798828 7.96751953 -0.05347656 7.12253906 -0.04882812 6.25195312 C-0.03705403 4.16793845 -0.0191189 2.08396023 0 0 Z " fill="#544761" transform="translate(663,163)"/>
<path d="M0 0 C1.50559539 1.96382007 2.89131683 3.78263366 4 6 C6.81227622 6.93742541 8.58746844 7.13470844 11.5 7.125 C12.2734375 7.12757812 13.046875 7.13015625 13.84375 7.1328125 C16.18447017 7.08145813 16.18447017 7.08145813 19 6 C19 8 19 8 17.625 9.4375 C17.08875 9.953125 16.5525 10.46875 16 11 C15.01 12.485 15.01 12.485 14 14 C13.01 13.67 12.02 13.34 11 13 C11.66 12.67 12.32 12.34 13 12 C13 11.34 13 10.68 13 10 C10.36 9.67 7.72 9.34 5 9 C5.66 9.928125 6.32 10.85625 7 11.8125 C9 15 9 15 9 18 C9.33 18.66 9.66 19.32 10 20 C4.4850603 20.57447289 1.26790401 19.6268797 -3.33203125 16.50390625 C-5.76469722 14.3105189 -6.43554981 12.1750323 -7 9 C-7 8.34 -7 7.68 -7 7 C-5.02 6.67 -3.04 6.34 -1 6 C-0.67 4.02 -0.34 2.04 0 0 Z " fill="#33224B" transform="translate(620,114)"/>
<path d="M0 0 C1.32 0 2.64 0 4 0 C4 1.98 4 3.96 4 6 C5.65 6 7.3 6 9 6 C9 7.32 9 8.64 9 10 C7.35 10 5.7 10 4 10 C4 15.61 4 21.22 4 27 C5.65 27 7.3 27 9 27 C9.33 28.32 9.66 29.64 10 31 C3.50467761 31.36765976 3.50467761 31.36765976 1.2878418 29.75268555 C-0.30953196 27.57874315 -0.34988641 26.44466137 -0.29296875 23.76953125 C-0.28330078 22.96708984 -0.27363281 22.16464844 -0.26367188 21.33789062 C-0.23853516 20.50451172 -0.21339844 19.67113281 -0.1875 18.8125 C-0.17396484 17.96751953 -0.16042969 17.12253906 -0.14648438 16.25195312 C-0.11115799 14.16769616 -0.05735139 12.08376723 0 10 C-1.32 10 -2.64 10 -4 10 C-4 8.68 -4 7.36 -4 6 C-2.68 6 -1.36 6 0 6 C0 4.02 0 2.04 0 0 Z " fill="#483C59" transform="translate(725,156)"/>
<path d="M0 0 C3.1147231 0.54169097 4.04197682 0.99165248 5.875 3.5 C7.330276 6.41055201 7.32567148 8.28091798 6.875 11.5 C3.74761114 14.40400395 1.99069062 15.52187629 -2.3125 15.4375 C-6.55978261 14.02173913 -6.55978261 14.02173913 -8.125 11.5 C-8.625 8.625 -8.625 8.625 -8.125 5.5 C-5.60820873 2.09492945 -4.22095697 0.67535311 0 0 Z " fill="#3B2C51" transform="translate(285.125,68.5)"/>
<path d="M0 0 C0.66 0 1.32 0 2 0 C2 3.96 2 7.92 2 12 C6.95 12 11.9 12 17 12 C17 14.64 17 17.28 17 20 C12.38 20 7.76 20 3 20 C3.99 18.68 4.98 17.36 6 16 C5.34 15.67 4.68 15.34 4 15 C4 15.66 4 16.32 4 17 C3.34 17 2.68 17 2 17 C1.34 15.35 0.68 13.7 0 12 C-0.99 12 -1.98 12 -3 12 C-2.67 8.7 -2.34 5.4 -2 2 C-1.34 2 -0.68 2 0 2 C0 1.34 0 0.68 0 0 Z " fill="#2A1941" transform="translate(506,78)"/>
<path d="M0 0 C0.33 0.99 0.66 1.98 1 3 C1.33 2.67 1.66 2.34 2 2 C2.33 2.99 2.66 3.98 3 5 C3.66 5.33 4.32 5.66 5 6 C3.0625 8.0625 3.0625 8.0625 0 10 C-3.08104805 10.0575408 -5.98011841 9.57402708 -9 9 C-9.33 9 -9.66 9 -10 9 C-10 9.33 -10 9.66 -10 10 C-12.97 10 -15.94 10 -19 10 C-19.33 9.34 -19.66 8.68 -20 8 C-19.34 8 -18.68 8 -18 8 C-17.67 6.35 -17.34 4.7 -17 3 C-16.27554687 2.95101562 -15.55109375 2.90203125 -14.8046875 2.8515625 C-9.58541133 2.44793848 -4.90186342 1.98724193 0 0 Z " fill="#2D1C47" transform="translate(476,120)"/>
<path d="M0 0 C3.96 0 7.92 0 12 0 C11.01 0.495 11.01 0.495 10 1 C10 1.66 10 2.32 10 3 C9.34 3 8.68 3 8 3 C8.04125 4.2375 8.0825 5.475 8.125 6.75 C8.13658291 10.01637962 7.8568702 12.2146947 6 15 C5.29488281 14.84660156 4.58976562 14.69320312 3.86328125 14.53515625 C0.96580964 13.99360971 -1.87621776 13.68513826 -4.8125 13.4375 C-5.78832031 13.35371094 -6.76414062 13.26992187 -7.76953125 13.18359375 C-8.50558594 13.12300781 -9.24164063 13.06242187 -10 13 C-10 15.97 -10 18.94 -10 22 C-10.33 22 -10.66 22 -11 22 C-11 18.7 -11 15.4 -11 12 C-7.37 12 -3.74 12 0 12 C0 8.04 0 4.08 0 0 Z " fill="#453659" transform="translate(496,77)"/>
<path d="M0 0 C1.0209375 0.680625 1.0209375 0.680625 2.0625 1.375 C2.3925 3.355 2.7225 5.335 3.0625 7.375 C-3.2075 7.375 -9.4775 7.375 -15.9375 7.375 C-14.9375 2.375 -14.9375 2.375 -13.375 0.5625 C-8.97046691 -1.58329817 -4.63298921 -0.98574238 0 0 Z " fill="#F5F2F7" transform="translate(586.9375,98.625)"/>
<path d="M0 0 C1.65 0 3.3 0 5 0 C5 0.99 5 1.98 5 3 C5.66 3 6.32 3 7 3 C7.06058594 3.61488281 7.12117187 4.22976562 7.18359375 4.86328125 C7.26738281 5.67152344 7.35117188 6.47976562 7.4375 7.3125 C7.51871094 8.11300781 7.59992188 8.91351563 7.68359375 9.73828125 C7.95265693 12.16087179 7.95265693 12.16087179 9 15 C8.34 15 7.68 15 7 15 C7 17.97 7 20.94 7 24 C22.84 24 38.68 24 55 24 C55 24.33 55 24.66 55 25 C38.83 25 22.66 25 6 25 C5.67 21.37 5.34 17.74 5 14 C3.21844267 10.43688534 1.83236991 8.64354525 -1 6 C-0.01 6 0.98 6 2 6 C1.01 5.01 0.02 4.02 -1 3 C-0.67 2.01 -0.34 1.02 0 0 Z " fill="#483A5B" transform="translate(139,108)"/>
<path d="M0 0 C0 1.32 0 2.64 0 4 C-2.64 4.66 -5.28 5.32 -8 6 C-8 12.27 -8 18.54 -8 25 C-9.32 25 -10.64 25 -12 25 C-12 17.08 -12 9.16 -12 1 C-10.68 1 -9.36 1 -8 1 C-7.67 1.66 -7.34 2.32 -7 3 C-6.401875 2.505 -5.80375 2.01 -5.1875 1.5 C-3 0 -3 0 0 0 Z " fill="#443856" transform="translate(659,162)"/>
<path d="M0 0 C0.66 0.33 1.32 0.66 2 1 C2.625 3.5625 2.625 3.5625 3 6 C1.35 6.33 -0.3 6.66 -2 7 C-2.33 7.99 -2.66 8.98 -3 10 C-2.34 10 -1.68 10 -1 10 C-1 10.99 -1 11.98 -1 13 C-6.41538462 15.21538462 -6.41538462 15.21538462 -9.375 14.125 C-9.91125 13.75375 -10.4475 13.3825 -11 13 C-11 11.68 -11 10.36 -11 9 C-12.4166747 7.2488427 -12.4166747 7.2488427 -14 6 C-11.71220962 4.96959833 -9.42048864 3.95047982 -7.125 2.9375 C-6.47402344 2.64294922 -5.82304687 2.34839844 -5.15234375 2.04492188 C-3.45989459 1.30338487 -1.73131425 0.64560999 0 0 Z " fill="#3A2B50" transform="translate(171,104)"/>
<path d="M0 0 C5.65394631 -0.34615998 9.03006806 0.56574762 14 3 C14 3.66 14 4.32 14 5 C14.66 5 15.32 5 16 5 C16.33 3.68 16.66 2.36 17 1 C17.33 2.98 17.66 4.96 18 7 C17.34 7 16.68 7 16 7 C16 8.98 16 10.96 16 13 C15.67 13 15.34 13 15 13 C15 11.35 15 9.7 15 8 C14.34 9.65 13.68 11.3 13 13 C9.7 12.34 6.4 11.68 3 11 C3 10.67 3 10.34 3 10 C5.31 10 7.62 10 10 10 C10.33 9.01 10.66 8.02 11 7 C10.34 6.67 9.68 6.34 9 6 C8.67 6.66 8.34 7.32 8 8 C7.21625 7.67 6.4325 7.34 5.625 7 C3.15667503 5.88133489 3.15667503 5.88133489 1 6 C1 5.34 1 4.68 1 4 C2.65 3.67 4.3 3.34 6 3 C4.02 2.34 2.04 1.68 0 1 C0 0.67 0 0.34 0 0 Z M18 3 C20.31 3.66 22.62 4.32 25 5 C24.360625 5.103125 23.72125 5.20625 23.0625 5.3125 C22.381875 5.539375 21.70125 5.76625 21 6 C20.67 6.99 20.34 7.98 20 9 C20 8.01 20 7.02 20 6 C19.34 6 18.68 6 18 6 C18 5.01 18 4.02 18 3 Z " fill="#413157" transform="translate(626,88)"/>
<path d="M0 0 C0.33 0.66 0.66 1.32 1 2 C1.78375 1.979375 2.5675 1.95875 3.375 1.9375 C6 2 6 2 8 3 C6.56176509 8.63308675 4.45855991 13.73677223 2 19 C1.67 19 1.34 19 1 19 C0.875 11.25 0.875 11.25 2 9 C-0.27173092 9.84566739 -0.27173092 9.84566739 -0.875 12.5 C-1.431875 13.7375 -1.431875 13.7375 -2 15 C-4.0703125 15.65625 -4.0703125 15.65625 -6 16 C-4.25192871 10.53262809 -2.34205919 5.24175152 0 0 Z " fill="#36254B" transform="translate(142,86)"/>
<path d="M0 0 C3.4763046 2.68623537 4.00807527 5.84109627 5 10 C5.22705078 13.45678711 5.22705078 13.45678711 5.1953125 17.02734375 C5.18886719 18.31318359 5.18242188 19.59902344 5.17578125 20.92382812 C5.15907601 22.26172154 5.14214619 23.59961217 5.125 24.9375 C5.11495322 26.30272783 5.10583036 27.6679628 5.09765625 29.03320312 C5.07417605 32.35565199 5.04133359 35.67773321 5 39 C1.04 39 -2.92 39 -7 39 C-7 38.67 -7 38.34 -7 38 C-3.37 38 0.26 38 4 38 C3.67 31.73 3.34 25.46 3 19 C2.01 18.67 1.02 18.34 0 18 C-0.90375653 11.67370431 -0.90375653 6.32629569 0 0 Z " fill="#524465" transform="translate(730,94)"/>
<path d="M0 0 C7.5606369 0.64345846 14.05244547 3.24195637 20 8 C20.66 8 21.32 8 22 8 C22.33 8.66 22.66 9.32 23 10 C23.99 10.66 24.98 11.32 26 12 C19.67976353 11.47150371 14.43083418 9.92232972 8.5625 7.5625 C7.34143555 7.09360352 7.34143555 7.09360352 6.09570312 6.61523438 C0.13111607 4.26223214 0.13111607 4.26223214 -1 2 C-0.67 1.34 -0.34 0.68 0 0 Z " fill="#352C4B" transform="translate(70,102)"/>
<path d="M0 0 C0.99 0 1.98 0 3 0 C3.226875 0.78375 3.45375 1.5675 3.6875 2.375 C4.78125 5.21875 4.78125 5.21875 7.625 6.3125 C8.800625 6.6528125 8.800625 6.6528125 10 7 C9.34 8.32 8.68 9.64 8 11 C8.94875 11.268125 9.8975 11.53625 10.875 11.8125 C14 13 14 13 16 16 C14.02 16.33 12.04 16.66 10 17 C12.31 17 14.62 17 17 17 C17 16.34 17 15.68 17 15 C17.99 15.33 18.98 15.66 20 16 C17.34549733 18.65450267 15.69774614 18.41639121 12 18.6875 C10.39125 18.81705078 10.39125 18.81705078 8.75 18.94921875 C6 19 6 19 4 18 C3.375 15.4375 3.375 15.4375 3 13 C3.66 12.67 4.32 12.34 5 12 C4.690625 11.236875 4.38125 10.47375 4.0625 9.6875 C3.32106407 7.81210323 2.63771783 5.91315348 2 4 C1.34 4 0.68 4 0 4 C0 2.68 0 1.36 0 0 Z " fill="#412F55" transform="translate(308,114)"/>
<path d="M0 0 C0.66 0 1.32 0 2 0 C2 1.98 2 3.96 2 6 C2.9590625 5.2265625 2.9590625 5.2265625 3.9375 4.4375 C8.19223739 2.44037837 11.53009768 2.67404017 16 4 C18.5625 5.9375 18.5625 5.9375 20 9 C20.30336355 12.36270783 20.23523337 15.63485596 20 19 C19.34 19 18.68 19 18 19 C17.82984375 18.38511719 17.6596875 17.77023438 17.484375 17.13671875 C16.01172043 12.17786734 16.01172043 12.17786734 13.25 7.875 C9.93140524 6.58443537 7.41787516 7.24047219 4 8 C3.01 8.495 3.01 8.495 2 9 C0 3.375 0 3.375 0 0 Z " fill="#3B314E" transform="translate(560,159)"/>
<path d="M0 0 C0.33 0.66 0.66 1.32 1 2 C0.67 2.66 0.34 3.32 0 4 C0.66 4 1.32 4 2 4 C2 4.66 2 5.32 2 6 C0 7.625 0 7.625 -2 9 C-2.66 8.67 -3.32 8.34 -4 8 C-4 8.66 -4 9.32 -4 10 C-7.3 10.33 -10.6 10.66 -14 11 C-12.04783565 9.04783565 -10.46800047 8.15173355 -8 7 C-9.98 6.34 -11.96 5.68 -14 5 C-13.67 4.01 -13.34 3.02 -13 2 C-13.66 1.67 -14.32 1.34 -15 1 C-14.16855469 1.01160156 -13.33710938 1.02320312 -12.48046875 1.03515625 C-10.85044922 1.04869141 -10.85044922 1.04869141 -9.1875 1.0625 C-7.56908203 1.07990234 -7.56908203 1.07990234 -5.91796875 1.09765625 C-2.93487831 1.13624766 -2.93487831 1.13624766 0 0 Z " fill="#27163E" transform="translate(329,121)"/>
<path d="M0 0 C1.32 0 2.64 0 4 0 C6.30583598 2.39123731 7.66673025 4.66730253 8 8 C7.34 8.66 6.68 9.32 6 10 C6.99 10.66 7.98 11.32 9 12 C6.375 12.8125 6.375 12.8125 3 13 C-0.49677737 11.06270495 -2.71830001 8.84509998 -4 5 C-3.67 4.34 -3.34 3.68 -3 3 C-2.01 3 -1.02 3 0 3 C0.33 3.66 0.66 4.32 1 5 C0.67 3.35 0.34 1.7 0 0 Z " fill="#2B1946" transform="translate(306,118)"/>
<path d="M0 0 C0.66 0.33 1.32 0.66 2 1 C2 10.57 2 20.14 2 30 C1.01 30 0.02 30 -1 30 C-1.02896822 25.56251365 -1.04678788 21.12505153 -1.0625 16.6875 C-1.07087891 15.42486328 -1.07925781 14.16222656 -1.08789062 12.86132812 C-1.09111328 11.65283203 -1.09433594 10.44433594 -1.09765625 9.19921875 C-1.10289307 8.08377686 -1.10812988 6.96833496 -1.11352539 5.8190918 C-1 3 -1 3 0 0 Z " fill="#2B1C41" transform="translate(633,156)"/>
<path d="M0 0 C1.32 0.33 2.64 0.66 4 1 C3.68546875 1.75023437 3.3709375 2.50046875 3.046875 3.2734375 C0.30673387 9.8266666 -2.38468198 16.39595673 -5 23 C-5.33 22.01 -5.66 21.02 -6 20 C-6.99 19.67 -7.98 19.34 -9 19 C-8.34 18.67 -7.68 18.34 -7 18 C-6.23078468 15.92390408 -6.23078468 15.92390408 -5.625 13.4375 C-4.26222612 8.58043411 -2.38360706 4.43844074 0 0 Z " fill="#352848" transform="translate(603,163)"/>
<path d="M0 0 C0.33 0 0.66 0 1 0 C1 7.92 1 15.84 1 24 C-0.32 24 -1.64 24 -3 24 C-3 17.4 -3 10.8 -3 4 C-2.34 3.67 -1.68 3.34 -1 3 C-0.67 2.01 -0.34 1.02 0 0 Z " fill="#2A1A41" transform="translate(541,108)"/>
<path d="M0 0 C4.59225513 9.22551253 4.59225513 9.22551253 4 15 C1.75 15.0625 1.75 15.0625 -1 14 C-3.68653475 9.75991001 -5 6.02102787 -5 1 C-2 0 -2 0 0 0 Z " fill="#352749" transform="translate(108,67)"/>
<path d="M0 0 C0.33 0 0.66 0 1 0 C1.33 11.88 1.66 23.76 2 36 C4.64 36.33 7.28 36.66 10 37 C10 27.43 10 17.86 10 8 C10.33 8 10.66 8 11 8 C11 17.9 11 27.8 11 38 C7.04 38 3.08 38 -1 38 C-0.67 25.46 -0.34 12.92 0 0 Z " fill="#564A68" transform="translate(665,95)"/>
<path d="M0 0 C1.485 0.99 1.485 0.99 3 2 C3 3.32 3 4.64 3 6 C3.66 6 4.32 6 5 6 C5 5.34 5 4.68 5 4 C8.3 4 11.6 4 15 4 C15 4.33 15 4.66 15 5 C12.36 5 9.72 5 7 5 C6.67 5.99 6.34 6.98 6 8 C9.96 8.33 13.92 8.66 18 9 C18 6.36 18 3.72 18 1 C13.05 1 8.1 1 3 1 C3 0.67 3 0.34 3 0 C8.28 0 13.56 0 19 0 C19 3.3 19 6.6 19 10 C16.37493198 10.02690844 13.75013827 10.04679404 11.125 10.0625 C10.37863281 10.07087891 9.63226562 10.07925781 8.86328125 10.08789062 C3.2265625 10.11328125 3.2265625 10.11328125 1 9 C1 8.34 1 7.68 1 7 C0.34 7 -0.32 7 -1 7 C-0.67 4.69 -0.34 2.38 0 0 Z " fill="#48395D" transform="translate(505,89)"/>
<path d="M0 0 C2.23551759 3.35327639 2.17283528 3.90743657 1.625 7.6875 C1.45871094 8.89986328 1.45871094 8.89986328 1.2890625 10.13671875 C1.19367188 10.75160156 1.09828125 11.36648437 1 12 C0.01 11.67 -0.98 11.34 -2 11 C-2.33 11.66 -2.66 12.32 -3 13 C-3.495 12.67 -3.99 12.34 -4.5 12 C-8.09090894 10.56363642 -11.14456127 10.87148538 -15 11 C-15 9.35 -15 7.7 -15 6 C-12.525 6.99 -12.525 6.99 -10 8 C-9.67 7.34 -9.34 6.68 -9 6 C-7.35 6 -5.7 6 -4 6 C-4 4.68 -4 3.36 -4 2 C-3.01 2.33 -2.02 2.66 -1 3 C-0.67 2.01 -0.34 1.02 0 0 Z " fill="#3B2A51" transform="translate(332,89)"/>
<path d="M0 0 C0.66 0 1.32 0 2 0 C1.91245449 1.75091019 1.80426627 3.50079551 1.6875 5.25 C1.62949219 6.22453125 1.57148438 7.1990625 1.51171875 8.203125 C0.94764076 11.28617724 0.01765461 12.65557871 -2 15 C-2.33 15.66 -2.66 16.32 -3 17 C-1.68 18.32 -0.36 19.64 1 21 C-1.91517292 19.92598892 -3.77810176 19.22189824 -6 17 C-5.625 14.875 -5.625 14.875 -5 13 C-5.66 13 -6.32 13 -7 13 C-6.67 11.02 -6.34 9.04 -6 7 C-5.38125 6.95875 -4.7625 6.9175 -4.125 6.875 C-3.42375 6.58625 -2.7225 6.2975 -2 6 C-0.6954344 3.00384054 -0.6954344 3.00384054 0 0 Z " fill="#2B1944" transform="translate(142,95)"/>
<path d="M0 0 C0.99 1.32 1.98 2.64 3 4 C3.33 2.68 3.66 1.36 4 0 C6.45307527 4.30021163 6.61509987 8.14160248 6 13 C4.5 15.5625 4.5 15.5625 3 17 C1 15 1 15 -1 12 C-1 11.34 -1 10.68 -1 10 C-1.66 10 -2.32 10 -3 10 C-3 9.34 -3 8.68 -3 8 C-1.35 7.67 0.3 7.34 2 7 C1.67 5.68 1.34 4.36 1 3 C0.34 3 -0.32 3 -1 3 C-0.67 2.01 -0.34 1.02 0 0 Z " fill="#44345A" transform="translate(480,105)"/>
<path d="M0 0 C2 0 2 0 3.625 1.5 C4.305625 2.2425 4.305625 2.2425 5 3 C5.33 2.34 5.66 1.68 6 1 C5.875 3.8125 5.875 3.8125 5 7 C0.40750153 10.36036474 -3.52874352 10.52947643 -9 10 C-11.5 8.6875 -11.5 8.6875 -13 7 C-13 6.01 -13 5.02 -13 4 C-10.83125748 4.50603992 -9.00032373 4.99983813 -7 6 C-5.00039988 6.039992 -2.99952758 6.04346799 -1 6 C-0.29733387 3.02425724 -0.29733387 3.02425724 0 0 Z " fill="#443C56" transform="translate(713,177)"/>
<path d="M0 0 C0.33 0 0.66 0 1 0 C1.33 2.31 1.66 4.62 2 7 C2.66 7 3.32 7 4 7 C3.41327281 10.96040855 2.00739148 13.35936358 -1 16 C-5.03929205 16.5872961 -9.29063454 16.85468273 -13 15 C-12.67 14.34 -12.34 13.68 -12 13 C-11.34 13 -10.68 13 -10 13 C-10 12.67 -10 12.34 -10 12 C-8.88625 11.87625 -7.7725 11.7525 -6.625 11.625 C-2.96896323 11.3534187 -2.96896323 11.3534187 -1 9 C-0.53993654 6.79749008 -0.53993654 6.79749008 -0.375 4.375 C-0.30023437 3.55773437 -0.22546875 2.74046875 -0.1484375 1.8984375 C-0.09945312 1.27195313 -0.05046875 0.64546875 0 0 Z " fill="#574C69" transform="translate(576,171)"/>
<path d="M0 0 C1.32 0 2.64 0 4 0 C5.74627478 2.61941217 6.38722388 4.03824877 7 7 C7.33 6.01 7.66 5.02 8 4 C8 5.32 8 6.64 8 8 C5.20807795 8.05380578 2.4171859 8.09357669 -0.375 8.125 C-1.1690625 8.14175781 -1.963125 8.15851563 -2.78125 8.17578125 C-4.85492015 8.19335473 -6.92883241 8.10335168 -9 8 C-9.66 7.34 -10.32 6.68 -11 6 C-9.35 6 -7.7 6 -6 6 C-6 5.01 -6 4.02 -6 3 C-5.195625 2.690625 -4.39125 2.38125 -3.5625 2.0625 C-1.10919595 1.23664655 -1.10919595 1.23664655 0 0 Z " fill="#3A2A50" transform="translate(430,125)"/>
<path d="M0 0 C0.33 0 0.66 0 1 0 C1 3.63 1 7.26 1 11 C1.99 11 2.98 11 4 11 C3.67 12.32 3.34 13.64 3 15 C3.66 15 4.32 15 5 15 C4.67 17.31 4.34 19.62 4 22 C2.02 21.67 0.04 21.34 -2 21 C-3.125 14.375 -3.125 14.375 -2 11 C-1.34 11 -0.68 11 0 11 C0 7.37 0 3.74 0 0 Z " fill="#2C1943" transform="translate(412,78)"/>
<path d="M0 0 C0.99 0 1.98 0 3 0 C3 7.92 3 15.84 3 24 C2.01 24 1.02 24 0 24 C0 16.08 0 8.16 0 0 Z " fill="#312344" transform="translate(691,163)"/>
<path d="M0 0 C0.99 0 1.98 0 3 0 C3 7.59 3 15.18 3 23 C2.01 23 1.02 23 0 23 C-1.32575494 18.17818019 -0.90062439 13.61167933 -0.5625 8.6875 C-0.51029297 7.85154297 -0.45808594 7.01558594 -0.40429688 6.15429688 C-0.27532629 4.10249211 -0.13844979 2.05118694 0 0 Z " fill="#2B1E3F" transform="translate(680,163)"/>
<path d="M0 0 C5.94 1.485 5.94 1.485 12 3 C7.45937251 6.40547061 6.11430057 6.38371847 0.625 6.3125 C-0.66148437 6.30863281 -1.94796875 6.30476562 -3.2734375 6.30078125 C-6.84988217 6.01211643 -9.66979382 5.2939346 -13 4 C-13 3.67 -13 3.34 -13 3 C-12.14535156 2.95101562 -11.29070312 2.90203125 -10.41015625 2.8515625 C-9.30542969 2.77679688 -8.20070313 2.70203125 -7.0625 2.625 C-5.40927734 2.52058594 -5.40927734 2.52058594 -3.72265625 2.4140625 C-2.37494141 2.20910156 -2.37494141 2.20910156 -1 2 C-0.67 1.34 -0.34 0.68 0 0 Z " fill="#34244B" transform="translate(463,127)"/>
<path d="M0 0 C0.33 0 0.66 0 1 0 C1.33 1.98 1.66 3.96 2 6 C1.34 6 0.68 6 0 6 C0 4.02 0 2.04 0 0 Z M2 3 C4.97 3.495 4.97 3.495 8 4 C9.125 9.75 9.125 9.75 8 12 C7.01 12 6.02 12 5 12 C4.67 12.99 4.34 13.98 4 15 C4 14.34 4 13.68 4 13 C3.34 13 2.68 13 2 13 C2.66 14.65 3.32 16.3 4 18 C3.01 17.67 2.02 17.34 1 17 C0.3125 14.1875 0.3125 14.1875 0 11 C1.375 9.3125 1.375 9.3125 3 8 C3.33 7.01 3.66 6.02 4 5 C3.34 5 2.68 5 2 5 C2 4.34 2 3.68 2 3 Z " fill="#2B1942" transform="translate(611,108)"/>
<path d="M0 0 C0.99 0.33 1.98 0.66 3 1 C3.33 2.65 3.66 4.3 4 6 C3.030625 5.979375 2.06125 5.95875 1.0625 5.9375 C-1.87465895 5.64381501 -1.87465895 5.64381501 -3 7 C-1.68 7.33 -0.36 7.66 1 8 C-1.25 8.25 -1.25 8.25 -4 8 C-5.35432675 6.68799596 -6.68733482 5.35368596 -8 4 C-10.64184541 3.20318682 -10.64184541 3.20318682 -13 3 C-9.26949176 -0.89270425 -5.03488144 -0.48216176 0 0 Z " fill="#291943" transform="translate(325,90)"/>
<path d="M0 0 C0.66 0 1.32 0 2 0 C2.33 5.61 2.66 11.22 3 17 C4.65 17 6.3 17 8 17 C8.33 18.32 8.66 19.64 9 21 C2.25 21.125 2.25 21.125 0 20 C0 13.4 0 6.8 0 0 Z " fill="#291C41" transform="translate(726,166)"/>
<path d="M0 0 C1.32 0 2.64 0 4 0 C5.03028044 2.45475514 6.04945504 4.91314351 7.0625 7.375 C7.50432617 8.42300781 7.50432617 8.42300781 7.95507812 9.4921875 C8.69591098 11.30504908 9.35396964 13.15123143 10 15 C9.67 15.66 9.34 16.32 9 17 C8.01 17 7.02 17 6 17 C5.18167278 15.10667466 4.37057732 13.21022267 3.5625 11.3125 C3.11003906 10.25675781 2.65757812 9.20101562 2.19140625 8.11328125 C1.14552545 5.38027471 0.46479252 2.87957663 0 0 Z " fill="#3B2F4D" transform="translate(584,163)"/>
<path d="M0 0 C2.97 0.33 5.94 0.66 9 1 C9 5 9 5 8 8 C9.32 8.33 10.64 8.66 12 9 C10 11 10 11 7.8359375 11.1953125 C6.61777344 11.16050781 6.61777344 11.16050781 5.375 11.125 C4.55773437 11.10695312 3.74046875 11.08890625 2.8984375 11.0703125 C2.27195312 11.04710937 1.64546875 11.02390625 1 11 C1.99 10.34 2.98 9.68 4 9 C3.35455571 5.51460083 1.89865603 2.97180943 0 0 Z " fill="#2C1C44" transform="translate(624,122)"/>
<path d="M0 0 C0.66 0.33 1.32 0.66 2 1 C1.34 2.65 0.68 4.3 0 6 C0.99 6 1.98 6 3 6 C3.91892116 9.67568464 3.95904856 11.16380575 3 15 C9.27 15 15.54 15 22 15 C22.33 14.34 22.66 13.68 23 13 C23 13.99 23 14.98 23 16 C16.07 16 9.14 16 2 16 C1.34 14.02 0.68 12.04 0 10 C0.33 9.34 0.66 8.68 1 8 C0.34 8 -0.32 8 -1 8 C-1 6.68 -1 5.36 -1 4 C-1.66 3.67 -2.32 3.34 -3 3 C-2.01 2.01 -1.02 1.02 0 0 Z " fill="#625373" transform="translate(568,91)"/>
<path d="M0 0 C0.66 0.33 1.32 0.66 2 1 C-4.6 7.6 -11.2 14.2 -18 21 C-17.34 21.66 -16.68 22.32 -16 23 C-20.455 24.485 -20.455 24.485 -25 26 C-20.03805145 20.00499003 -14.6523376 14.53572963 -9.125 9.0625 C-8.24585938 8.18787109 -7.36671875 7.31324219 -6.4609375 6.41210938 C-4.3095654 4.27242952 -2.15588208 2.13513403 0 0 Z " fill="#D7CFDE" transform="translate(176,87)"/>
<path d="M0 0 C2.24956302 2.24956302 3.00510965 4.06323263 4.1875 7 C4.55230469 7.886875 4.91710937 8.77375 5.29296875 9.6875 C6 12 6 12 5 14 C4.34 13.67 3.68 13.34 3 13 C3 12.01 3 11.02 3 10 C2.01 9.67 1.02 9.34 0 9 C-0.99 10.485 -0.99 10.485 -2 12 C-2 10.68 -2 9.36 -2 8 C-2.66 8 -3.32 8 -4 8 C-4.33 6.35 -4.66 4.7 -5 3 C-2.525 3.495 -2.525 3.495 0 4 C0 2.68 0 1.36 0 0 Z " fill="#473B5C" transform="translate(112,78)"/>
<path d="M0 0 C-0.63808594 0.19335938 -1.27617187 0.38671875 -1.93359375 0.5859375 C-3.17302734 0.97652344 -3.17302734 0.97652344 -4.4375 1.375 C-5.67306641 1.75785156 -5.67306641 1.75785156 -6.93359375 2.1484375 C-9.17798016 2.80882227 -9.17798016 2.80882227 -10 5 C-9.01 5.66 -8.02 6.32 -7 7 C-9.97 7 -12.94 7 -16 7 C-16.33 6.34 -16.66 5.68 -17 5 C-16.34 5 -15.68 5 -15 5 C-14.67 3.35 -14.34 1.7 -14 0 C-12.2300132 -0.19532961 -10.45895721 -0.38098882 -8.6875 -0.5625 C-7.70136719 -0.66691406 -6.71523438 -0.77132812 -5.69921875 -0.87890625 C-3 -1 -3 -1 0 0 Z " fill="#2A1941" transform="translate(473,123)"/>
<path d="M0 0 C1.65 0.33 3.3 0.66 5 1 C4.125 5.875 4.125 5.875 3 7 C-2.41176471 7.47058824 -2.41176471 7.47058824 -4.875 5.5 C-5.24625 5.005 -5.6175 4.51 -6 4 C-5.67 3.34 -5.34 2.68 -5 2 C-3.68 2 -2.36 2 -1 2 C-0.67 1.34 -0.34 0.68 0 0 Z " fill="#2C1A44" transform="translate(164,90)"/>
<path d="M0 0 C0.7115625 0.32355469 1.423125 0.64710937 2.15625 0.98046875 C1.49625 1.64046875 0.83625 2.30046875 0.15625 2.98046875 C-0.83375 2.65046875 -1.82375 2.32046875 -2.84375 1.98046875 C-8.02356039 1.68163354 -11.98286209 2.39324005 -16.84375 3.98046875 C-17.50375 3.32046875 -18.16375 2.66046875 -18.84375 1.98046875 C-13.60325694 -2.35649102 -6.19317595 -2.22035566 0 0 Z " fill="#403251" transform="translate(723.84375,89.01953125)"/>
<path d="M0 0 C3 3.625 3 3.625 3 7 C3.33 7.66 3.66 8.32 4 9 C-2.43985624 9.67081836 -5.83783423 7.75430238 -11 4 C-9.171875 3.41015625 -9.171875 3.41015625 -7 3 C-4.25 4.4375 -4.25 4.4375 -2 6 C-2 4.68 -2 3.36 -2 2 C-1.34 2 -0.68 2 0 2 C0 1.34 0 0.68 0 0 Z " fill="#453759" transform="translate(626,125)"/>
<path d="M0 0 C0.33 0.66 0.66 1.32 1 2 C0.67 2.66 0.34 3.32 0 4 C0.99 3.67 1.98 3.34 3 3 C3 5 3 7 3 9 C0.69 9.66 -1.62 10.32 -4 11 C-4.8125 7.75 -4.8125 7.75 -5 4 C-2.5625 1.5625 -2.5625 1.5625 0 0 Z " fill="#2B1944" transform="translate(155,97)"/>
<path d="M0 0 C2.46800047 1.15173355 4.04783565 2.04783565 6 4 C6 11 6 18 6 25 C5.67 25 5.34 25 5 25 C5 19.06 5 13.12 5 7 C2.36 6.67 -0.28 6.34 -3 6 C-2 4 -1 2 0 0 Z " fill="#3B2B51" transform="translate(417,93)"/>
<path d="M0 0 C0.99 0.33 1.98 0.66 3 1 C2.01 2.485 2.01 2.485 1 4 C0.34 3.34 -0.32 2.68 -1 2 C-0.67 1.34 -0.34 0.68 0 0 Z M-1 4 C-0.34 4 0.32 4 1 4 C1 4.66 1 5.32 1 6 C2.65 6.33 4.3 6.66 6 7 C6.33 8.65 6.66 10.3 7 12 C6.01 12.33 5.02 12.66 4 13 C3.67 12.34 3.34 11.68 3 11 C0.65092125 10.31068656 0.65092125 10.31068656 -2.0625 9.875 C-3.44115234 9.62363281 -3.44115234 9.62363281 -4.84765625 9.3671875 C-5.55792969 9.24601562 -6.26820313 9.12484375 -7 9 C-7 8.67 -7 8.34 -7 8 C-4.36 8 -1.72 8 1 8 C0.01 7.34 -0.98 6.68 -2 6 C-1.67 5.34 -1.34 4.68 -1 4 Z " fill="#392850" transform="translate(585,89)"/>
<path d="M0 0 C3.48763093 1.74381547 6.03368051 3.52806709 9 6 C5.95613276 6.08226668 3.92824652 5.97608217 1 5 C-1.14255793 5.38932856 -1.14255793 5.38932856 -3 6 C-2.67 6.99 -2.34 7.98 -2 9 C-2.66 9.66 -3.32 10.32 -4 11 C-4.66 9.68 -5.32 8.36 -6 7 C-4.02 4.69 -2.04 2.38 0 0 Z " fill="#473D58" transform="translate(305,136)"/>
<path d="M0 0 C0.99 0 1.98 0 3 0 C3 4.62 3 9.24 3 14 C2.01 14 1.02 14 0 14 C0 9.38 0 4.76 0 0 Z " fill="#2B1E3E" transform="translate(664,163)"/>
<path d="M0 0 C2.84550012 0.66010476 5.52325999 1.51724966 8.25 2.5625 C8.95640625 2.83191406 9.6628125 3.10132813 10.390625 3.37890625 C10.92171875 3.58386719 11.4528125 3.78882813 12 4 C12 4.66 12 5.32 12 6 C14.64 6 17.28 6 20 6 C20 6.33 20 6.66 20 7 C12.45709983 7.4946164 6.941085 5.90617391 0 3 C0 2.01 0 1.02 0 0 Z " fill="#4E415E" transform="translate(304,146)"/>
<path d="M0 0 C0.66 0.33 1.32 0.66 2 1 C1.18958252 1.68860107 0.37916504 2.37720215 -0.45581055 3.08666992 C-3.49338976 6.56497649 -3.64478721 8.0694666 -3.70703125 12.61328125 C-3.73603516 13.86044922 -3.76503906 15.10761719 -3.79492188 16.39257812 C-3.80072266 17.68615234 -3.80652344 18.97972656 -3.8125 20.3125 C-3.83763672 21.62541016 -3.86277344 22.93832031 -3.88867188 24.29101562 C-3.94751968 27.52764489 -3.98381937 30.76292218 -4 34 C-4.33 34 -4.66 34 -5 34 C-5.12383963 29.80088403 -5.21444607 25.60274184 -5.2746582 21.40234375 C-5.29976347 19.97442099 -5.33385587 18.54662625 -5.37719727 17.11914062 C-5.43803678 15.06348082 -5.46624551 13.00952247 -5.48828125 10.953125 C-5.51446533 9.71723633 -5.54064941 8.48134766 -5.56762695 7.20800781 C-5 4 -5 4 -2.46948242 1.56542969 C-1.65455322 1.04883789 -0.83962402 0.53224609 0 0 Z " fill="#DCD6E7" transform="translate(710,99)"/>
<path d="M0 0 C0.33 0 0.66 0 1 0 C1 3.63 1 7.26 1 11 C-2.63 11 -6.26 11 -10 11 C-7.42595029 7.13892543 -5.38979741 7.05680308 -1 6 C-0.67 4.02 -0.34 2.04 0 0 Z " fill="#473B59" transform="translate(556,89)"/>
<path d="M0 0 C0 0.33 0 0.66 0 1 C-1.670625 1.12375 -1.670625 1.12375 -3.375 1.25 C-5.169375 1.62125 -5.169375 1.62125 -7 2 C-7.70151152 3.3153341 -8.36525925 4.65117592 -9 6 C-11.27211724 7.26939883 -13.54719477 8.09155362 -16 9 C-15.375 5.625 -15.375 5.625 -14 2 C-9.49191008 -0.46871591 -5.00767975 -0.17267861 0 0 Z " fill="#423558" transform="translate(584,88)"/>
<path d="M0 0 C3.78947368 1.57894737 3.78947368 1.57894737 5 4 C5.99 4.66 6.98 5.32 8 6 C3.1001072 5.49311454 -1.44356134 5.0003877 -6 3 C-6.33 2.01 -6.66 1.02 -7 0 C-4.27761216 -1.36119392 -2.90677521 -0.76129827 0 0 Z " fill="#312344" transform="translate(88,108)"/>
<path d="M0 0 C0.33 0 0.66 0 1 0 C1 5.28 1 10.56 1 16 C0.01 16 -0.98 16 -2 16 C-2.05384521 13.70858714 -2.09272087 11.41681812 -2.125 9.125 C-2.14820313 7.84882813 -2.17140625 6.57265625 -2.1953125 5.2578125 C-2 2 -2 2 0 0 Z " fill="#2C1F42" transform="translate(650,170)"/>
<path d="M0 0 C0.99 0 1.98 0 3 0 C3.226875 0.78375 3.45375 1.5675 3.6875 2.375 C4.78125 5.21875 4.78125 5.21875 7.625 6.3125 C8.800625 6.6528125 8.800625 6.6528125 10 7 C9.505 7.8971875 9.505 7.8971875 9 8.8125 C7.79212012 11.05386471 7.79212012 11.05386471 8 14 C7.01 14 6.02 14 5 14 C4.690625 12.906875 4.38125 11.81375 4.0625 10.6875 C3.41662103 8.44592006 2.7376883 6.2130649 2 4 C1.34 4 0.68 4 0 4 C0 2.68 0 1.36 0 0 Z " fill="#3A2B4F" transform="translate(308,114)"/>
<path d="M0 0 C0.33 0 0.66 0 1 0 C1 2.64 1 5.28 1 8 C2.98 7.34 4.96 6.68 7 6 C6.67 7.65 6.34 9.3 6 11 C5.01 11.33 4.02 11.66 3 12 C2.67 12.99 2.34 13.98 2 15 C-0.10428384 9.87080814 -0.21755666 5.4389165 0 0 Z " fill="#3C2B51" transform="translate(608,107)"/>
<path d="M0 0 C1.49080078 0.02707031 1.49080078 0.02707031 3.01171875 0.0546875 C3.77097656 0.07789062 4.53023438 0.10109375 5.3125 0.125 C4.9825 1.115 4.6525 2.105 4.3125 3.125 C3.095625 3.08375 1.87875 3.0425 0.625 3 C-2.90644127 2.98745492 -5.48753566 3.52501783 -8.6875 5.125 C-8.6875 4.135 -8.6875 3.145 -8.6875 2.125 C-5.26655758 -0.15562828 -4.00562778 -0.09425007 0 0 Z " fill="#483A5B" transform="translate(376.6875,87.875)"/>
<path d="M0 0 C0.33 0 0.66 0 1 0 C1.02689216 1.47906892 1.04634621 2.95827483 1.0625 4.4375 C1.07410156 5.26121094 1.08570313 6.08492187 1.09765625 6.93359375 C1 9 1 9 0 10 C-2.1221998 10.12569503 -4.24911345 10.17576773 -6.375 10.1875 C-8.11910156 10.20876953 -8.11910156 10.20876953 -9.8984375 10.23046875 C-13 10 -13 10 -16 8 C-14.02 8 -12.04 8 -10 8 C-10 7.67 -10 7.34 -10 7 C-2.25 6.875 -2.25 6.875 0 8 C0 5.36 0 2.72 0 0 Z " fill="#574D67" transform="translate(522,124)"/>
<path d="M0 0 C0.66 0.66 1.32 1.32 2 2 C1.98252073 4.75589777 1.86136729 7.38786676 1.625 10.125 C1.56828125 10.87910156 1.5115625 11.63320312 1.453125 12.41015625 C1.3115535 14.27418096 1.15700041 16.13721137 1 18 C-0.6250814 15.10511815 -1.29684434 12.80091288 -1.5625 9.5 C-1.8090907 6.56104141 -2.21723678 3.84641172 -3 1 C-2.01 0.67 -1.02 0.34 0 0 Z " fill="#2A1B3E" transform="translate(333,99)"/>
<path d="M0 0 C2.475 0.99 2.475 0.99 5 2 C5.33 1.67 5.66 1.34 6 1 C7.99958364 0.95919217 10.00045254 0.95745644 12 1 C11.360625 1.28875 10.72125 1.5775 10.0625 1.875 C7.84793921 2.82823451 7.84793921 2.82823451 7 5 C4.71484375 5.4140625 4.71484375 5.4140625 1.9375 5.625 C1.01839844 5.69976562 0.09929688 5.77453125 -0.84765625 5.8515625 C-1.91306641 5.92503906 -1.91306641 5.92503906 -3 6 C-2.01 4.02 -1.02 2.04 0 0 Z " fill="#291840" transform="translate(629,93)"/>
<path d="M0 0 C0.66 0.33 1.32 0.66 2 1 C2 1.66 2 2.32 2 3 C7.3086849 2.41825155 7.3086849 2.41825155 12 0 C12 0.99 12 1.98 12 3 C11.34 3 10.68 3 10 3 C10 3.66 10 4.32 10 5 C6.98675805 6.50662097 4.31713623 6.17770373 1 6 C0.34 5.34 -0.32 4.68 -1 4 C-0.34 4 0.32 4 1 4 C0.67 2.68 0.34 1.36 0 0 Z " fill="#493E57" transform="translate(667,181)"/>
<path d="M0 0 C-2.57181746 3.85772618 -4.69279085 4.56426362 -9 6 C-11.1875 5.5625 -11.1875 5.5625 -13 5 C-12.67 3.68 -12.34 2.36 -12 1 C-11.67 1.66 -11.34 2.32 -11 3 C-10.29875 2.505 -9.5975 2.01 -8.875 1.5 C-5.62880281 -0.1936681 -3.60659844 -0.25162315 0 0 Z " fill="#4C3F61" transform="translate(688,88)"/>
<path d="M0 0 C-0.99 0.66 -1.98 1.32 -3 2 C-3 1.34 -3 0.68 -3 0 C-7.17252206 0.43579675 -11.30786632 0.87415751 -15.4375 1.625 C-18 2 -18 2 -20 1 C-12.87555521 -2.48952398 -7.58075364 -2.95834288 0 0 Z " fill="#4C425D" transform="translate(328,90)"/>
<path d="M0 0 C1.47906892 -0.02689216 2.95827483 -0.04634621 4.4375 -0.0625 C5.26121094 -0.07410156 6.08492188 -0.08570312 6.93359375 -0.09765625 C9 0 9 0 10 1 C10.14115161 3.67058851 10.04247107 6.32432238 10 9 C9.01 9 8.02 9 7 9 C5.875 5.25 5.875 5.25 7 3 C4.69 2.34 2.38 1.68 0 1 C0 0.67 0 0.34 0 0 Z " fill="#281A3B" transform="translate(427,89)"/>
<path d="M0 0 C2.0625 1.75 2.0625 1.75 4 4 C3.75 6.25 3.75 6.25 3 8 C2.67 7.67 2.34 7.34 2 7 C1.01 8.485 1.01 8.485 0 10 C-0.99 9.67 -1.98 9.34 -3 9 C-2.01 6.03 -1.02 3.06 0 0 Z " fill="#3E2E53" transform="translate(146,76)"/>
<path d="M0 0 C0.99 0 1.98 0 3 0 C4.65 3.3 6.3 6.6 8 10 C3.11533348 8.04613339 1.70035973 7.25825958 -1 3 C-0.67 2.01 -0.34 1.02 0 0 Z " fill="#3A2A4F" transform="translate(303,121)"/>
<path d="M0 0 C0.33 0.66 0.66 1.32 1 2 C0.09176973 4.43557572 -0.86828071 6.76195517 -1.9375 9.125 C-2.22818359 9.78371094 -2.51886719 10.44242188 -2.81835938 11.12109375 C-3.53860198 12.75049505 -4.26841143 14.37566132 -5 16 C-5.33 16 -5.66 16 -6 16 C-6 13.36 -6 10.72 -6 8 C-5.34 8 -4.68 8 -4 8 C-4 7.01 -4 6.02 -4 5 C-3.34 5 -2.68 5 -2 5 C-2.33 4.01 -2.66 3.02 -3 2 C-2.01 1.34 -1.02 0.68 0 0 Z " fill="#453756" transform="translate(149,89)"/>
<path d="M0 0 C1.98 0.99 1.98 0.99 4 2 C4 2.99 4 3.98 4 5 C4.99 5.33 5.98 5.66 7 6 C6.34 7.32 5.68 8.64 5 10 C4.34 9.67 3.68 9.34 3 9 C3 8.34 3 7.68 3 7 C2.34 7 1.68 7 1 7 C0.67 4.69 0.34 2.38 0 0 Z " fill="#2B1B43" transform="translate(111,86)"/>
<path d="M0 0 C2.86207152 1.28299758 5.0245088 2.530636 7 5 C7 5.99 7 6.98 7 8 C6.01 8 5.02 8 4 8 C3.34 7.01 2.68 6.02 2 5 C0.68 5 -0.64 5 -2 5 C-1.125 1.125 -1.125 1.125 0 0 Z " fill="#3F3550" transform="translate(171,79)"/>
<path d="M0 0 C0.99 0 1.98 0 3 0 C3 1.65 3 3.3 3 5 C2.34 5 1.68 5 1 5 C1.16757812 5.62648437 1.33515625 6.25296875 1.5078125 6.8984375 C1.71148438 7.71570313 1.91515625 8.53296875 2.125 9.375 C2.33382812 10.18710938 2.54265625 10.99921875 2.7578125 11.8359375 C2.83773437 12.55007812 2.91765625 13.26421875 3 14 C2.34 14.66 1.68 15.32 1 16 C-0.50156874 12.99686252 -0.09281204 10.20932478 -0.0625 6.875 C-0.05347656 5.59367188 -0.04445313 4.31234375 -0.03515625 2.9921875 C-0.02355469 2.00476563 -0.01195312 1.01734375 0 0 Z " fill="#261B3B" transform="translate(559,154)"/>
<path d="M0 0 C-0.33 0.99 -0.66 1.98 -1 3 C-1.33 2.67 -1.66 2.34 -2 2 C-2.33 2.66 -2.66 3.32 -3 4 C-2.34 4 -1.68 4 -1 4 C-1 5.65 -1 7.3 -1 9 C-1.598125 8.236875 -2.19625 7.47375 -2.8125 6.6875 C-4.84004112 4.08664741 -4.84004112 4.08664741 -6.75 2.3125 C-8 1 -8 1 -8 -1 C-4.37673261 -2.2077558 -3.35853631 -1.54311128 0 0 Z " fill="#35254E" transform="translate(726,98)"/>
<path d="M0 0 C1.46067199 0.45082469 2.91848032 0.91093537 4.375 1.375 C5.18710938 1.63023438 5.99921875 1.88546875 6.8359375 2.1484375 C9 3 9 3 11 5 C10.01 5.99 9.02 6.98 8 8 C6.02 7.34 4.04 6.68 2 6 C2.99 5.67 3.98 5.34 5 5 C4.67 4.01 4.34 3.02 4 2 C3.34 2 2.68 2 2 2 C1.67 2.66 1.34 3.32 1 4 C0.67 2.68 0.34 1.36 0 0 Z " fill="#4F4260" transform="translate(88,108)"/>
<path d="M0 0 C2.1519437 3.22791555 2.20086443 4.28400809 2 8 C1.01 8.495 1.01 8.495 0 9 C0 8.34 0 7.68 0 7 C-0.66 7 -1.32 7 -2 7 C-2.33 7.66 -2.66 8.32 -3 9 C-3 8.34 -3 7.68 -3 7 C-3.66 7 -4.32 7 -5 7 C-4.67 6.01 -4.34 5.02 -4 4 C-3.34 4 -2.68 4 -2 4 C-1.34 2.68 -0.68 1.36 0 0 Z " fill="#2A1642" transform="translate(148,81)"/>
<path d="M0 0 C0.33 0 0.66 0 1 0 C1.33 2.31 1.66 4.62 2 7 C2.66 7 3.32 7 4 7 C3.43628586 10.26954202 2.50037734 11.82575883 0 14 C-1.39151652 9.20699867 -0.68662689 4.84864218 0 0 Z " fill="#514662" transform="translate(576,171)"/>
<path d="M0 0 C1.32 0.33 2.64 0.66 4 1 C3.01 3.64 2.02 6.28 1 9 C-0.32 8.01 -1.64 7.02 -3 6 C-2.01 4.02 -1.02 2.04 0 0 Z " fill="#493E5A" transform="translate(603,163)"/>
<path d="M0 0 C3.63 0 7.26 0 11 0 C12 5 12 5 11 8 C10.01 7.67 9.02 7.34 8 7 C8.33 6.67 8.66 6.34 9 6 C8.67 6 8.34 6 8 6 C8 4.35 8 2.7 8 1 C5.36 1 2.72 1 0 1 C0 0.67 0 0.34 0 0 Z " fill="#25153B" transform="translate(426,124)"/>
<path d="M0 0 C0.99 0 1.98 0 3 0 C3.66 2.31 4.32 4.62 5 7 C5.66 7 6.32 7 7 7 C7 7.66 7 8.32 7 9 C5.35 9 3.7 9 2 9 C1.34 6.03 0.68 3.06 0 0 Z " fill="#2B1C42" transform="translate(182,100)"/>
<path d="M0 0 C2 1 2 1 2 1 Z M0 2 C0 3.32 0 4.64 0 6 C-1.98 6.99 -1.98 6.99 -4 8 C-4.12375 7.360625 -4.2475 6.72125 -4.375 6.0625 C-4.684375 5.0415625 -4.684375 5.0415625 -5 4 C-5.66 3.67 -6.32 3.34 -7 3 C-3.375 0.875 -3.375 0.875 0 2 Z " fill="#33214A" transform="translate(576,93)"/>
<path d="M0 0 C-0.75 4.75 -0.75 4.75 -3 7 C-3.33 5.35 -3.66 3.7 -4 2 C-4.99 2.495 -4.99 2.495 -6 3 C-7.32860925 3.35169068 -8.66158328 3.68770276 -10 4 C-10 3.01 -10 2.02 -10 1 C-6.78548731 -0.60725635 -3.56387464 -0.05748185 0 0 Z " fill="#28193D" transform="translate(542,89)"/>
<path d="M0 0 C0.99 0 1.98 0 3 0 C3 3.96 3 7.92 3 12 C2.67 11.01 2.34 10.02 2 9 C1.34 9 0.68 9 0 9 C0 6.03 0 3.06 0 0 Z " fill="#34274A" transform="translate(559,168)"/>
<path d="M0 0 C0.33 0.66 0.66 1.32 1 2 C0.54625 2.433125 0.0925 2.86625 -0.375 3.3125 C-2.20024334 5.10798342 -2.20024334 5.10798342 -4 8 C-4.99 7.67 -5.98 7.34 -7 7 C-6.34 6.67 -5.68 6.34 -5 6 C-5 5.34 -5 4.68 -5 4 C-6.134375 3.87625 -7.26875 3.7525 -8.4375 3.625 C-9.613125 3.41875 -10.78875 3.2125 -12 3 C-12.33 2.34 -12.66 1.68 -13 1 C-11.84371094 1.01740234 -11.84371094 1.01740234 -10.6640625 1.03515625 C-9.15972656 1.04869141 -9.15972656 1.04869141 -7.625 1.0625 C-6.12839844 1.07990234 -6.12839844 1.07990234 -4.6015625 1.09765625 C-2.01567547 1.18006602 -2.01567547 1.18006602 0 0 Z " fill="#6B5E7D" transform="translate(638,120)"/>
<path d="M0 0 C0.33 0.66 0.66 1.32 1 2 C-2.41176471 8.70588235 -2.41176471 8.70588235 -5 10 C-5 9.34 -5 8.68 -5 8 C-5.66 7.67 -6.32 7.34 -7 7 C-4.69 4.69 -2.38 2.38 0 0 Z " fill="#3F3051" transform="translate(166,84)"/>
<path d="M0 0 C1.65 0 3.3 0 5 0 C5.33 1.32 5.66 2.64 6 4 C2.625 4.125 2.625 4.125 -1 4 C-1.66 3.34 -2.32 2.68 -3 2 C-2.01 2 -1.02 2 0 2 C0 1.34 0 0.68 0 0 Z " fill="#4E4560" transform="translate(729,183)"/>
<path d="M0 0 C2 0 2 0 3.625 1.5 C4.07875 1.995 4.5325 2.49 5 3 C5.33 2.34 5.66 1.68 6 1 C5.67 2.98 5.34 4.96 5 7 C4.01 7.33 3.02 7.66 2 8 C-0.1519437 4.77208445 -0.20086443 3.71599191 0 0 Z " fill="#534764" transform="translate(713,177)"/>
<path d="M0 0 C1.485 0.99 1.485 0.99 3 2 C3 2.66 3 3.32 3 4 C3.33 3.34 3.66 2.68 4 2 C4.66 2 5.32 2 6 2 C6 3.65 6 5.3 6 7 C6.66 7 7.32 7 8 7 C8.33 7.99 8.66 8.98 9 10 C6.03874657 8.62513234 3.39878817 7.23335451 1 5 C0.25 2.3125 0.25 2.3125 0 0 Z " fill="#483C59" transform="translate(497,122)"/>
<path d="M0 0 C0.33 0.66 0.66 1.32 1 2 C1.66 2 2.32 2 3 2 C2.25 7.75 2.25 7.75 0 10 C0 9.01 0 8.02 0 7 C-0.99 6.67 -1.98 6.34 -3 6 C-2.34 5.67 -1.68 5.34 -1 5 C-0.34444881 2.47266765 -0.34444881 2.47266765 0 0 Z " fill="#473A58" transform="translate(597,176)"/>
<path d="M0 0 C2.18975773 3.28463659 2.99806563 6.20696275 4 10 C2.68 10 1.36 10 0 10 C-2.21538462 4.58461538 -2.21538462 4.58461538 -1.125 1.625 C-0.75375 1.08875 -0.3825 0.5525 0 0 Z " fill="#443759" transform="translate(590,170)"/>
<path d="M0 0 C1.32 0.33 2.64 0.66 4 1 C4 3.64 4 6.28 4 9 C3.34 9 2.68 9 2 9 C1.34 6.03 0.68 3.06 0 0 Z " fill="#2A1D3E" transform="translate(576,169)"/>
<path d="M0 0 C0 1.32 0 2.64 0 4 C-2.64 4.66 -5.28 5.32 -8 6 C-6.24081631 1.94034532 -4.71412298 0 0 0 Z " fill="#3F354E" transform="translate(659,162)"/>
<path d="M0 0 C1.65 1.65 3.3 3.3 5 5 C4.34 6.32 3.68 7.64 3 9 C0.9375 7.3125 0.9375 7.3125 -1 5 C-0.75 2.25 -0.75 2.25 0 0 Z " fill="#3E3052" transform="translate(595,120)"/>
<path d="M0 0 C0.66 0.66 1.32 1.32 2 2 C1.96712417 4.72869407 1.43602229 7.2966618 1 10 C0.01 9.67 -0.98 9.34 -2 9 C-2.875 7.25 -2.875 7.25 -3 5 C-1.5625 2.25 -1.5625 2.25 0 0 Z " fill="#322346" transform="translate(122,104)"/>
<path d="M0 0 C0.66 0 1.32 0 2 0 C1.125 4.875 1.125 4.875 0 6 C1.32 7.32 2.64 8.64 4 10 C1.08482708 8.92598892 -0.77810176 8.22189824 -3 6 C-2.63318342 3.06546739 -2.13562754 2.13562754 0 0 Z " fill="#26133D" transform="translate(139,106)"/>
<path d="M0 0 C2.32488881 0.2818047 3.90892835 0.95446418 6 2 C6 2.99 6 3.98 6 5 C1.545 4.01 1.545 4.01 -3 3 C-2.01 2.01 -1.02 1.02 0 0 Z " fill="#3F344F" transform="translate(711,162)"/>
<path d="M0 0 C0.66 0.33 1.32 0.66 2 1 C1.34 2.98 0.68 4.96 0 7 C-0.99 7 -1.98 7 -3 7 C-3 4 -3 4 -2 1 C-1.34 0.67 -0.68 0.34 0 0 Z " fill="#453258" transform="translate(121,101)"/>
<path d="M0 0 C-0.33 0.33 -0.66 0.66 -1 1 C-0.34 1.66 0.32 2.32 1 3 C-4.75 4.125 -4.75 4.125 -7 3 C-6.67 2.01 -6.34 1.02 -6 0 C-3 -1 -3 -1 0 0 Z " fill="#281741" transform="translate(375,95)"/>
<path d="M0 0 C3.63 0 7.26 0 11 0 C10.01 0.495 10.01 0.495 9 1 C9 1.66 9 2.32 9 3 C7.02 3 5.04 3 3 3 C3 2.34 3 1.68 3 1 C2.01 0.67 1.02 0.34 0 0 Z " fill="#2E1D48" transform="translate(317,124)"/>
<path d="M0 0 C2.97 0.495 2.97 0.495 6 1 C5.67 2.32 5.34 3.64 5 5 C3.35 4.67 1.7 4.34 0 4 C0 2.68 0 1.36 0 0 Z " fill="#392F4C" transform="translate(110,118)"/>
<path d="M0 0 C2.31 0.66 4.62 1.32 7 2 C6.01 3.32 5.02 4.64 4 6 C2.35 5.67 0.7 5.34 -1 5 C-0.67 3.35 -0.34 1.7 0 0 Z " fill="#4E4463" transform="translate(78,104)"/>
<path d="M0 0 C0.66 0 1.32 0 2 0 C3.38232443 1.62626404 4.71937515 3.2925002 6 5 C5.67 5.66 5.34 6.32 5 7 C0.125 5.25 0.125 5.25 -1 3 C-0.34 3 0.32 3 1 3 C0.67 2.01 0.34 1.02 0 0 Z " fill="#463B5B" transform="translate(574,163)"/>
<path d="M0 0 C2.475 0.495 2.475 0.495 5 1 C4.67 2.32 4.34 3.64 4 5 C2.68 4.67 1.36 4.34 0 4 C0 2.68 0 1.36 0 0 Z " fill="#504B62" transform="translate(690,154)"/>
<path d="M0 0 C0.99 0.33 1.98 0.66 3 1 C3 1.66 3 2.32 3 3 C3.66 3 4.32 3 5 3 C5 3.66 5 4.32 5 5 C3.35 5.33 1.7 5.66 0 6 C0 4.02 0 2.04 0 0 Z " fill="#2C223D" transform="translate(115,111)"/>
<path d="M0 0 C1.32 0.33 2.64 0.66 4 1 C4.33 2.65 4.66 4.3 5 6 C4.01 5.67 3.02 5.34 2 5 C2 4.34 2 3.68 2 3 C1.34 3 0.68 3 0 3 C0 2.01 0 1.02 0 0 Z " fill="#281D3F" transform="translate(713,174)"/>
<path d="M0 0 C0.33 0.66 0.66 1.32 1 2 C1.66 2.33 2.32 2.66 3 3 C2.01 4.485 2.01 4.485 1 6 C-0.65 5.67 -2.3 5.34 -4 5 C-2.68 3.35 -1.36 1.7 0 0 Z " fill="#3B2B4E" transform="translate(149,101)"/>
<path d="M0 0 C0.66 0.33 1.32 0.66 2 1 C-0.31 3.64 -2.62 6.28 -5 9 C-5 4.61031544 -2.87194899 3.23094261 0 0 Z " fill="#4D405C" transform="translate(306,92)"/>
<path d="M0 0 C0.66 0 1.32 0 2 0 C2 0.66 2 1.32 2 2 C2.99 2.33 3.98 2.66 5 3 C3.6875 4.5 3.6875 4.5 2 6 C1.01 6 0.02 6 -1 6 C-0.67 4.02 -0.34 2.04 0 0 Z " fill="#2B1C41" transform="translate(150,68)"/>
<path d="M0 0 C2.99332739 0.9977758 3.94766315 1.7522025 6 4 C5.67 4.99 5.34 5.98 5 7 C4.34 7 3.68 7 3 7 C0.70351351 4.4385343 0 3.52032428 0 0 Z " fill="#22153A" transform="translate(591,179)"/>
<path d="M0 0 C3.875 1.75 3.875 1.75 5 4 C3.35 4.33 1.7 4.66 0 5 C-0.5625 3.0625 -0.5625 3.0625 -1 1 C-0.67 0.67 -0.34 0.34 0 0 Z " fill="#291944" transform="translate(677,95)"/>
<path d="M0 0 C-0.66 1.65 -1.32 3.3 -2 5 C-2.99 5 -3.98 5 -5 5 C-5.33 3.35 -5.66 1.7 -6 0 C-3.50907189 -1.24546405 -2.58919267 -0.7767578 0 0 Z " fill="#3D2B50" transform="translate(552,90)"/>
<path d="M0 0 C4.875 2.75 4.875 2.75 6 5 C4.02 4.34 2.04 3.68 0 3 C0 3.66 0 4.32 0 5 C-0.99 4.67 -1.98 4.34 -3 4 C-2.34 4 -1.68 4 -1 4 C-0.67 2.68 -0.34 1.36 0 0 Z " fill="#362A47" transform="translate(562,181)"/>
<path d="M0 0 C1.32 0.66 2.64 1.32 4 2 C3.67 3.32 3.34 4.64 3 6 C1.35 5.67 -0.3 5.34 -2 5 C-2 4.34 -2 3.68 -2 3 C-1.34 3 -0.68 3 0 3 C0 2.01 0 1.02 0 0 Z " fill="#281740" transform="translate(337,138)"/>
<path d="M0 0 C2.64 0 5.28 0 8 0 C8 0.66 8 1.32 8 2 C8.66 2.33 9.32 2.66 10 3 C2.25 2.25 2.25 2.25 0 0 Z " fill="#564C66" transform="translate(450,130)"/>
<path d="M0 0 C0.33 0.99 0.66 1.98 1 3 C1.66 3.33 2.32 3.66 3 4 C1.68 4.99 0.36 5.98 -1 7 C-1 6.34 -1 5.68 -1 5 C-1.99 4.67 -2.98 4.34 -4 4 C-2.68 2.68 -1.36 1.36 0 0 Z " fill="#37274C" transform="translate(478,122)"/>
<path d="M0 0 C0.5534764 2.07553648 1 3.84365964 1 6 C0.01 6.33 -0.98 6.66 -2 7 C-2.66 6.67 -3.32 6.34 -4 6 C-2.84826645 3.53199953 -1.95216435 1.95216435 0 0 Z " fill="#433857" transform="translate(446,119)"/>
<path d="M0 0 C1.32 0.66 2.64 1.32 4 2 C2.6875 3.5 2.6875 3.5 1 5 C0.01 5 -0.98 5 -2 5 C-1.125 1.125 -1.125 1.125 0 0 Z " fill="#2C1947" transform="translate(170,109)"/>
<path d="M0 0 C0.99 0 1.98 0 3 0 C2.67 1.65 2.34 3.3 2 5 C0.68 5.33 -0.64 5.66 -2 6 C-1.34 4.02 -0.68 2.04 0 0 Z " fill="#403157" transform="translate(138,96)"/>
<path d="M0 0 C1.65 0 3.3 0 5 0 C5 0.99 5 1.98 5 3 C2.69 3.66 0.38 4.32 -2 5 C-1.34 3.35 -0.68 1.7 0 0 Z " fill="#2C1A41" transform="translate(462,75)"/>
<path d="M0 0 C1.98 0 3.96 0 6 0 C5.01 0.33 4.02 0.66 3 1 C1.79117904 3.00016466 1.79117904 3.00016466 1 5 C0.34 4.67 -0.32 4.34 -1 4 C-0.67 2.68 -0.34 1.36 0 0 Z " fill="#2A1C3D" transform="translate(280,70)"/>
<path d="M0 0 C-1.75 4.875 -1.75 4.875 -4 6 C-4.33 5.01 -4.66 4.02 -5 3 C-5.66 2.34 -6.32 1.68 -7 1 C-4.53721199 -0.231394 -2.7204945 -0.07159196 0 0 Z " fill="#D2CAD9" transform="translate(119,116)"/>
<path d="M0 0 C0.66 0.33 1.32 0.66 2 1 C1.21625 1.763125 0.4325 2.52625 -0.375 3.3125 C-3.07257717 5.90891805 -3.07257717 5.90891805 -5 9 C-5.3125 6.75 -5.3125 6.75 -5 4 C-2.5 1.6875 -2.5 1.6875 0 0 Z " fill="#D1C9DA" transform="translate(710,99)"/>
<path d="M0 0 C3 1 3 1 4.3125 2.8125 C5 5 5 5 4.125 7.25 C3.75375 7.8275 3.3825 8.405 3 9 C3 7.68 3 6.36 3 5 C2.34 5 1.68 5 1 5 C0.67 3.35 0.34 1.7 0 0 Z " fill="#554765" transform="translate(107,81)"/>
</svg>
